<?xml version="1.0" encoding="UTF-8" standalone="no"?>
<!-- Created with Inkscape (http://www.inkscape.org/) -->

<svg
   width="40.065411mm"
   height="6.276721mm"
   viewBox="0 0 40.065412 6.276721"
   version="1.1"
   id="svg11882"
   inkscape:version="1.2.2 (b0a84865, 2022-12-01)"
   sodipodi:docname="googlecloud.svg"
   xmlns:inkscape="http://www.inkscape.org/namespaces/inkscape"
   xmlns:sodipodi="http://sodipodi.sourceforge.net/DTD/sodipodi-0.dtd"
   xmlns="http://www.w3.org/2000/svg"
   xmlns:svg="http://www.w3.org/2000/svg">
  <sodipodi:namedview
     id="namedview11884"
     pagecolor="#ffffff"
     bordercolor="#666666"
     borderopacity="1.0"
     inkscape:showpageshadow="2"
     inkscape:pageopacity="0.0"
     inkscape:pagecheckerboard="0"
     inkscape:deskcolor="#d1d1d1"
     inkscape:document-units="mm"
     showgrid="false"
     inkscape:zoom="3.8767203"
     inkscape:cx="66.29315"
     inkscape:cy="106.92027"
     inkscape:window-width="1734"
     inkscape:window-height="1361"
     inkscape:window-x="9"
     inkscape:window-y="25"
     inkscape:window-maximized="0"
     inkscape:current-layer="layer1" />
  <defs
     id="defs11879">
    <clipPath
       clipPathUnits="userSpaceOnUse"
       id="clipPath1868">
      <g
         id="g1872"
         transform="matrix(2.8346458,0,0,-2.8346458,-225.4982,640.54986)">
        <path
           d="M 18.462729,147.79711 H 158.13486 V 255.65997 H 18.462729 Z"
           id="path1870"
           style="stroke-width:0.352778" />
      </g>
    </clipPath>
    <clipPath
       clipPathUnits="userSpaceOnUse"
       id="clipPath1862">
      <g
         id="g1866"
         transform="matrix(2.8346458,0,0,-2.8346458,-228.3308,641.33514)">
        <path
           d="M 18.462729,147.79711 H 158.13486 V 255.65997 H 18.462729 Z"
           id="path1864"
           style="stroke-width:0.352778" />
      </g>
    </clipPath>
    <clipPath
       clipPathUnits="userSpaceOnUse"
       id="clipPath1856">
      <g
         id="g1860"
         transform="matrix(2.8346458,0,0,-2.8346458,-221.3449,647.38274)">
        <path
           d="M 18.462729,147.79711 H 158.13486 V 255.65997 H 18.462729 Z"
           id="path1858"
           style="stroke-width:0.352778" />
      </g>
    </clipPath>
    <clipPath
       clipPathUnits="userSpaceOnUse"
       id="clipPath1850">
      <g
         id="g1854"
         transform="matrix(2.8346458,0,0,-2.8346458,-221.3449,640.76143)">
        <path
           d="M 18.462729,147.79711 H 158.13486 V 255.65997 H 18.462729 Z"
           id="path1852"
           style="stroke-width:0.352778" />
      </g>
    </clipPath>
    <clipPath
       clipPathUnits="userSpaceOnUse"
       id="clipPath1844">
      <g
         id="g1848"
         transform="matrix(2.8346458,0,0,-2.8346458,-279.4123,645.28193)">
        <path
           d="M 18.462729,147.79711 H 158.13486 V 255.65997 H 18.462729 Z"
           id="path1846"
           style="stroke-width:0.352778" />
      </g>
    </clipPath>
    <clipPath
       id="clip0_933_8272">
      <rect
         width="1531.25"
         height="250"
         fill="#ffffff"
         id="rect10436"
         x="0"
         y="0" />
    </clipPath>
    <clipPath
       id="clip0_466_1077">
      <rect
         width="102.385"
         height="20.307699"
         fill="#ffffff"
         transform="translate(0,1.375)"
         id="rect8621"
         x="0"
         y="0" />
    </clipPath>
    <clipPath
       id="clip1_466_1077">
      <rect
         width="20.307699"
         height="20.307699"
         fill="#ffffff"
         transform="translate(0,1.375)"
         id="rect8624"
         x="0"
         y="0" />
    </clipPath>
    <clipPath
       clipPathUnits="userSpaceOnUse"
       id="clipPath1838">
      <g
         id="g1842"
         transform="matrix(2.8346458,0,0,-2.8346458,-247.0459,661.88343)">
        <path
           d="M 18.462729,147.79711 H 158.13486 V 255.65997 H 18.462729 Z"
           id="path1840"
           style="stroke-width:0.352778" />
      </g>
    </clipPath>
    <clipPath
       clipPathUnits="userSpaceOnUse"
       id="clipPath1832">
      <g
         id="g1836"
         transform="matrix(2.8346458,0,0,-2.8346458,-250.22549,665.10353)">
        <path
           d="M 18.462729,147.79711 H 158.13486 V 255.65997 H 18.462729 Z"
           id="path1834"
           style="stroke-width:0.352778" />
      </g>
    </clipPath>
    <clipPath
       clipPathUnits="userSpaceOnUse"
       id="clipPath1868-4">
      <g
         id="g1872-8"
         transform="matrix(2.8346458,0,0,-2.8346458,-225.4982,640.54986)">
        <path
           d="M 18.462729,147.79711 H 158.13486 V 255.65997 H 18.462729 Z"
           id="path1870-8"
           style="stroke-width:0.352778" />
      </g>
    </clipPath>
    <clipPath
       clipPathUnits="userSpaceOnUse"
       id="clipPath1862-7">
      <g
         id="g1866-1"
         transform="matrix(2.8346458,0,0,-2.8346458,-228.3308,641.33514)">
        <path
           d="M 18.462729,147.79711 H 158.13486 V 255.65997 H 18.462729 Z"
           id="path1864-9"
           style="stroke-width:0.352778" />
      </g>
    </clipPath>
    <clipPath
       clipPathUnits="userSpaceOnUse"
       id="clipPath1856-3">
      <g
         id="g1860-1"
         transform="matrix(2.8346458,0,0,-2.8346458,-221.3449,647.38274)">
        <path
           d="M 18.462729,147.79711 H 158.13486 V 255.65997 H 18.462729 Z"
           id="path1858-1"
           style="stroke-width:0.352778" />
      </g>
    </clipPath>
    <clipPath
       clipPathUnits="userSpaceOnUse"
       id="clipPath1850-4">
      <g
         id="g1854-9"
         transform="matrix(2.8346458,0,0,-2.8346458,-221.3449,640.76143)">
        <path
           d="M 18.462729,147.79711 H 158.13486 V 255.65997 H 18.462729 Z"
           id="path1852-5"
           style="stroke-width:0.352778" />
      </g>
    </clipPath>
    <clipPath
       clipPathUnits="userSpaceOnUse"
       id="clipPath1844-9">
      <g
         id="g1848-0"
         transform="matrix(2.8346458,0,0,-2.8346458,-279.4123,645.28193)">
        <path
           d="M 18.462729,147.79711 H 158.13486 V 255.65997 H 18.462729 Z"
           id="path1846-9"
           style="stroke-width:0.352778" />
      </g>
    </clipPath>
    <clipPath
       clipPathUnits="userSpaceOnUse"
       id="clipPath1838-3">
      <g
         id="g1842-7"
         transform="matrix(2.8346458,0,0,-2.8346458,-247.0459,661.88343)">
        <path
           d="M 18.462729,147.79711 H 158.13486 V 255.65997 H 18.462729 Z"
           id="path1840-7"
           style="stroke-width:0.352778" />
      </g>
    </clipPath>
    <clipPath
       clipPathUnits="userSpaceOnUse"
       id="clipPath1832-3">
      <g
         id="g1836-2"
         transform="matrix(2.8346458,0,0,-2.8346458,-250.22549,665.10353)">
        <path
           d="M 18.462729,147.79711 H 158.13486 V 255.65997 H 18.462729 Z"
           id="path1834-5"
           style="stroke-width:0.352778" />
      </g>
    </clipPath>
  </defs>
  <g
     inkscape:label="Layer 1"
     inkscape:groupmode="layer"
     id="layer1"
     transform="translate(133.9513,81.314442)">
    <g
       id="g24855"
       transform="matrix(1.9829577,0,0,1.9829577,132.07448,31.80493)"
       style="fill:#7c4bac;fill-opacity:1">
      <path
         class="cls-1"
         d="m -131.77948,-56.215776 h 0.11423 l 0.32556,-0.325563 0.016,-0.138221 a 1.4633208,1.4633208 0 0 0 -2.38061,0.713954 0.17706067,0.17706067 0 0 1 0.11423,-0.0069 l 0.65113,-0.107379 c 0,0 0.0331,-0.05483 0.0503,-0.0514 a 0.81219446,0.81219446 0 0 1 1.11149,-0.08453 z"
         id="path24609"
         style="fill:#7c4bac;fill-opacity:1;stroke-width:0.114233" />
      <path
         class="cls-2"
         d="m -130.8759,-55.965606 a 1.4667478,1.4667478 0 0 0 -0.44208,-0.712812 l -0.45693,0.456931 a 0.81219446,0.81219446 0 0 1 0.29815,0.644272 v 0.08111 a 0.40666854,0.40666854 0 1 1 0,0.813337 h -0.81334 l -0.0811,0.08225 v 0.487773 l 0.0811,0.08111 h 0.81334 a 1.0577947,1.0577947 0 0 0 0.60086,-1.93396 z"
         id="path24611"
         style="fill:#7c4bac;fill-opacity:1;stroke-width:0.114233" />
      <path
         class="cls-3"
         d="m -133.10458,-54.036216 h 0.81334 v -0.651126 h -0.81334 a 0.40438373,0.40438373 0 0 1 -0.16792,-0.03656 l -0.11423,0.03541 -0.32785,0.325563 -0.0285,0.114233 a 1.0520831,1.0520831 0 0 0 0.63856,0.212473 z"
         id="path24613"
         style="fill:#7c4bac;fill-opacity:1;stroke-width:0.114233" />
      <path
         class="cls-4"
         d="m -133.10458,-56.148378 a 1.0577947,1.0577947 0 0 0 -0.63856,1.896262 l 0.47178,-0.471781 a 0.40666838,0.40666838 0 1 1 0.53803,-0.538036 l 0.47179,-0.471781 a 1.0566524,1.0566524 0 0 0 -0.84304,-0.414664 z"
         id="path24615"
         style="fill:#7c4bac;fill-opacity:1;stroke-width:0.114233" />
      <path
         class="cls-5"
         d="m -128.24512,-54.490862 a 1.0406598,1.0406598 0 0 1 -0.75394,-0.309571 1.0052477,1.0052477 0 0 1 -0.31642,-0.744797 1.00639,1.00639 0 0 1 0.31642,-0.744797 1.0406598,1.0406598 0 0 1 0.75394,-0.315282 1.009817,1.009817 0 0 1 0.72309,0.291293 l -0.20333,0.206762 a 0.73223154,0.73223154 0 0 0 -0.51976,-0.205619 0.72423527,0.72423527 0 0 0 -0.5369,0.228465 0.74593947,0.74593947 0 0 0 -0.22046,0.542605 0.74593947,0.74593947 0 0 0 0.22046,0.535752 0.76650135,0.76650135 0 0 0 1.06922,0.01256 0.60771792,0.60771792 0 0 0 0.1565,-0.355263 h -0.68539 v -0.292436 h 0.96983 a 0.92756945,0.92756945 0 0 1 0.0114,0.178203 0.91386153,0.91386153 0 0 1 -0.25017,0.673973 0.9721202,0.9721202 0 0 1 -0.73452,0.298147 z m 2.25495,-0.194196 a 0.69910409,0.69910409 0 0 1 -0.96755,0 0.65112636,0.65112636 0 0 1 -0.19762,-0.485488 0.65226867,0.65226867 0 0 1 0.19762,-0.485489 0.7002464,0.7002464 0 0 1 0.96755,0 0.65226867,0.65226867 0 0 1 0.19763,0.485489 0.65112636,0.65112636 0 0 1 -0.19877,0.485488 z m -0.75393,-0.190768 a 0.37011393,0.37011393 0 0 0 0.54032,0 0.40666838,0.40666838 0 0 0 0.11423,-0.29472 0.40781071,0.40781071 0 0 0 -0.11423,-0.295863 0.37582556,0.37582556 0 0 0 -0.54261,0 0.40781071,0.40781071 0 0 0 -0.11423,0.295863 0.40666838,0.40666838 0 0 0 0.11537,0.29472 z m 2.24124,0.190768 a 0.69910409,0.69910409 0 0 1 -0.96755,0 0.65112636,0.65112636 0 0 1 -0.19762,-0.485488 0.65226867,0.65226867 0 0 1 0.19762,-0.485489 0.69910409,0.69910409 0 0 1 0.96755,0 0.65226867,0.65226867 0 0 1 0.19762,0.485489 0.65112636,0.65112636 0 0 1 -0.19762,0.485488 z m -0.75394,-0.190768 a 0.37011393,0.37011393 0 0 0 0.54033,0 0.40666838,0.40666838 0 0 0 0.11423,-0.29472 0.40781071,0.40781071 0 0 0 -0.11423,-0.295863 0.37582556,0.37582556 0 0 0 -0.54261,0 0.40781071,0.40781071 0 0 0 -0.11423,0.295863 0.40666838,0.40666838 0 0 0 0.11537,0.29472 z m 1.73177,0.994967 a 0.59857929,0.59857929 0 0 1 -0.38039,-0.121087 0.7002464,0.7002464 0 0 1 -0.22161,-0.281013 l 0.26045,-0.108521 a 0.43865355,0.43865355 0 0 0 0.12908,0.170207 0.32556317,0.32556317 0 0 0 0.21361,0.07197 0.34269808,0.34269808 0 0 0 0.26617,-0.10281 0.41694933,0.41694933 0 0 0 0.0948,-0.297005 v -0.09824 h -0.0103 a 0.43522657,0.43522657 0 0 1 -0.35755,0.154214 0.62028353,0.62028353 0 0 1 -0.45693,-0.198765 0.65683796,0.65683796 0 0 1 -0.19534,-0.478634 0.66369193,0.66369193 0 0 1 0.19534,-0.482063 0.61914117,0.61914117 0 0 1 0.45693,-0.199907 0.49120057,0.49120057 0 0 1 0.21019,0.04684 0.42266096,0.42266096 0 0 1 0.1485,0.108521 h 0.0103 v -0.108521 h 0.2833 v 1.216578 a 0.70938503,0.70938503 0 0 1 -0.18164,0.531182 0.63970306,0.63970306 0 0 1 -0.46492,0.177061 z m 0.0206,-0.877307 a 0.33241714,0.33241714 0 0 0 0.25816,-0.114233 0.42266096,0.42266096 0 0 0 0.10395,-0.292436 0.43179958,0.43179958 0 0 0 -0.10395,-0.298147 0.33127481,0.33127481 0 0 0 -0.25816,-0.114233 0.35297902,0.35297902 0 0 0 -0.26731,0.114233 0.41694933,0.41694933 0 0 0 -0.11423,0.295862 0.40895304,0.40895304 0 0 0 0.11423,0.292436 0.35412135,0.35412135 0 0 0 0.26731,0.116518 z m 1.12976,-1.770607 v 1.996787 h -0.29815 v -1.996787 z m 0.81791,2.037911 a 0.64884169,0.64884169 0 0 1 -0.48093,-0.195338 0.6614073,0.6614073 0 0 1 -0.19305,-0.484346 0.66940357,0.66940357 0 0 1 0.1862,-0.488917 0.61228721,0.61228721 0 0 1 0.45693,-0.190768 0.57687509,0.57687509 0 0 1 0.22847,0.04455 0.53803599,0.53803599 0 0 1 0.17477,0.114232 0.79962885,0.79962885 0 0 1 0.11423,0.138222 0.81676375,0.81676375 0 0 1 0.0674,0.133652 l 0.0308,0.07768 -0.91386,0.375826 a 0.34269808,0.34269808 0 0 0 0.32899,0.205619 0.38953349,0.38953349 0 0 0 0.3347,-0.188484 l 0.22847,0.154214 a 0.75279343,0.75279343 0 0 1 -0.21933,0.207904 0.62142584,0.62142584 0 0 1 -0.34384,0.09596 z m -0.38154,-0.700246 0.60771,-0.252455 a 0.21018816,0.21018816 0 0 0 -0.0948,-0.103951 0.3095706,0.3095706 0 0 0 -0.1565,-0.03998 0.35297902,0.35297902 0 0 0 -0.2456,0.108521 0.36211764,0.36211764 0 0 0 -0.1108,0.287866 z"
         id="path24617"
         style="fill:#7c4bac;fill-opacity:1;stroke-width:0.114233" />
      <path
         class="cls-5"
         d="m -119.41036,-54.490862 a 0.94127737,0.94127737 0 0 1 -0.95728,-0.962982 0.94127737,0.94127737 0 0 1 0.95728,-0.962981 0.85217587,0.85217587 0 0 1 0.6774,0.301574 l -0.1645,0.159926 a 0.62142584,0.62142584 0 0 0 -0.51176,-0.234177 0.69796173,0.69796173 0 0 0 -0.50834,0.203334 0.71281201,0.71281201 0 0 0 -0.20676,0.532324 0.71281201,0.71281201 0 0 0 0.20676,0.532325 0.69796173,0.69796173 0 0 0 0.50834,0.203334 0.72651994,0.72651994 0 0 0 0.57116,-0.267305 l 0.1645,0.164496 a 0.89786898,0.89786898 0 0 1 -0.31643,0.241031 0.96869322,0.96869322 0 0 1 -0.42037,0.0891 z"
         id="path24619"
         style="fill:#7c4bac;fill-opacity:1;stroke-width:0.114233" />
      <path
         class="cls-5"
         d="m -118.23148,-54.531986 h -0.23647 v -1.844858 h 0.23647 z"
         id="path24621"
         style="fill:#7c4bac;fill-opacity:1;stroke-width:0.114233" />
      <path
         class="cls-5"
         d="m -117.84538,-55.642327 a 0.6614073,0.6614073 0 0 1 0.93214,0 0.66826126,0.66826126 0 0 1 0.18277,0.479777 0.66826126,0.66826126 0 0 1 -0.18277,0.479777 0.6614073,0.6614073 0 0 1 -0.93214,0 0.66826126,0.66826126 0 0 1 -0.18277,-0.479777 0.66826126,0.66826126 0 0 1 0.18277,-0.479777 z m 0.17592,0.811051 a 0.3986721,0.3986721 0 0 0 0.57916,0 0.45693076,0.45693076 0 0 0 0.12223,-0.331274 0.45693076,0.45693076 0 0 0 -0.12223,-0.331275 0.3986721,0.3986721 0 0 0 -0.57916,0 0.45693076,0.45693076 0 0 0 -0.12223,0.331275 0.45693076,0.45693076 0 0 0 0.12337,0.330132 z"
         id="path24623"
         style="fill:#7c4bac;fill-opacity:1;stroke-width:0.114233" />
      <path
         class="cls-5"
         d="m -115.42022,-54.531986 h -0.22846 v -0.174776 h -0.007 a 0.43979586,0.43979586 0 0 1 -0.16678,0.157641 0.46606939,0.46606939 0 0 1 -0.23418,0.06283 0.4443652,0.4443652 0 0 1 -0.35869,-0.143933 0.57116344,0.57116344 0 0 1 -0.12223,-0.386107 v -0.776782 h 0.23647 v 0.733374 q 0,0.352979 0.31185,0.352979 a 0.29015104,0.29015104 0 0 0 0.23989,-0.114232 0.43065725,0.43065725 0 0 0 0.0925,-0.273017 v -0.699104 h 0.23646 z"
         id="path24625"
         style="fill:#7c4bac;fill-opacity:1;stroke-width:0.114233" />
      <path
         class="cls-5"
         d="m -114.61716,-54.490862 a 0.55517089,0.55517089 0 0 1 -0.42266,-0.193053 0.68539617,0.68539617 0 0 1 -0.17706,-0.478635 0.68539617,0.68539617 0 0 1 0.17706,-0.478635 0.55517089,0.55517089 0 0 1 0.42266,-0.193053 0.53575132,0.53575132 0 0 1 0.25816,0.06168 0.43751123,0.43751123 0 0 1 0.17135,0.154214 h 0.0103 l -0.0103,-0.174776 v -0.583729 h 0.23647 v 1.844858 h -0.22847 v -0.174776 h -0.0103 a 0.43751123,0.43751123 0 0 1 -0.17135,0.154214 0.53575132,0.53575132 0 0 1 -0.25588,0.06169 z m 0.0388,-0.2159 a 0.37696789,0.37696789 0 0 0 0.28444,-0.123371 0.46264241,0.46264241 0 0 0 0.11423,-0.332417 0.46264241,0.46264241 0 0 0 -0.11423,-0.332417 0.3861065,0.3861065 0 0 0 -0.57117,0 0.45693076,0.45693076 0 0 0 -0.11423,0.331274 0.45693076,0.45693076 0 0 0 0.11423,0.331275 0.37696789,0.37696789 0 0 0 0.28673,0.125656 z"
         id="path24627"
         style="fill:#7c4bac;fill-opacity:1;stroke-width:0.114233" />
    </g>
  </g>
</svg>
