<svg width="28" height="28" viewBox="0 0 28 28" fill="none" xmlns="http://www.w3.org/2000/svg">
<g id="icons8-github (1) 1">
<path id="Vector" d="M14.0001 1.12012C6.89446 1.12012 1.12012 6.89446 1.12012 14.0001C1.12012 21.1058 6.89446 26.8801 14.0001 26.8801C21.1058 26.8801 26.8801 21.1058 26.8801 14.0001C26.8801 6.89446 21.1058 1.12012 14.0001 1.12012ZM14.0001 2.24012C20.5002 2.24012 25.7601 7.50001 25.7601 14.0001C25.7601 14.0401 25.7572 14.0795 25.7568 14.1193C25.3987 14.0863 24.9848 14.0549 24.4586 14.0362C23.7145 14.0098 22.7766 14.0175 21.7132 14.0701C21.7527 13.7955 21.7803 13.517 21.7811 13.2312C21.8353 12.1825 21.4831 11.2015 20.9104 10.335C21.0488 9.85687 21.2111 9.24864 21.2517 8.55871C21.2979 7.77232 21.2301 6.90031 20.5987 6.31105L20.4368 6.16012H20.2159C18.7134 6.16012 17.6849 6.78911 17.0561 7.28777C16.148 6.93629 15.127 6.72012 14.0001 6.72012C12.8669 6.72012 11.836 6.93931 10.8906 7.28996C10.2621 6.79106 9.23272 6.16012 7.72855 6.16012H7.50871L7.34684 6.30996C6.73185 6.88102 6.67519 7.7291 6.71355 8.51168C6.74738 9.20176 6.90029 9.82932 7.03621 10.3306C6.45383 11.214 6.10434 12.2204 6.10434 13.2159C6.10434 13.5024 6.13098 13.7818 6.16996 14.057C5.15873 14.0101 4.25729 14.0011 3.54168 14.0264C3.01545 14.045 2.60156 14.0761 2.2434 14.1095C2.24306 14.0729 2.24012 14.0368 2.24012 14.0001C2.24012 7.50001 7.50001 2.24012 14.0001 2.24012ZM8.06215 7.3534C9.19199 7.46046 10.042 7.96498 10.4356 8.3148L10.6981 8.54668L11.0218 8.41434C11.9074 8.04967 12.8952 7.84012 14.0001 7.84012C15.105 7.84012 16.0931 8.05072 16.9117 8.40887L17.2398 8.55324L17.5078 8.3148C17.9015 7.96486 18.7529 7.46019 19.8834 7.3534C20.0337 7.60259 20.1643 7.95697 20.1328 8.49309C20.095 9.13469 19.9234 9.83353 19.7937 10.2486L19.7095 10.5187L19.8768 10.7473C20.4309 11.5029 20.7135 12.3206 20.6654 13.1853L20.6643 13.2006V13.2159C20.6643 14.6134 20.1611 15.7318 19.0893 16.5606C18.0176 17.3893 16.3256 17.9201 13.9443 17.9201C11.5631 17.9201 9.87002 17.3893 8.79824 16.5606C7.72646 15.7318 7.22434 14.6134 7.22434 13.2159C7.22434 12.3957 7.52053 11.4933 8.06762 10.7473L8.23168 10.5242L8.15293 10.2584C8.02316 9.81719 7.8641 9.10241 7.83246 8.45699C7.80615 7.92016 7.9332 7.58085 8.06215 7.3534ZM4.97559 14.5721C5.37133 14.5772 5.82493 14.5986 6.27934 14.6214C6.32275 14.796 6.37226 14.9677 6.43246 15.1354C4.58034 15.1745 3.19477 15.3607 2.34074 15.5204C2.30463 15.2402 2.27587 14.9577 2.2598 14.6717C2.89095 14.6118 3.78068 14.5569 4.97559 14.5721ZM23.0246 14.5809C24.2187 14.5657 25.1081 14.6207 25.7393 14.6804C25.7233 14.9624 25.695 15.2409 25.6595 15.5171C24.7749 15.3549 23.3519 15.1687 21.4518 15.1387C21.5108 14.9743 21.5599 14.8055 21.6028 14.6345C22.104 14.6076 22.5931 14.5864 23.0246 14.5809ZM6.6709 15.6911C7.00507 16.3607 7.48257 16.9586 8.11355 17.4465C8.97626 18.1136 10.0978 18.5797 11.467 18.829C11.2879 19.0131 11.125 19.2152 10.9803 19.4284L10.9464 19.3989C10.9494 19.3953 10.668 19.5362 10.2475 19.5739C9.82694 19.6115 9.30822 19.6001 8.84855 19.6001C8.16255 19.6001 7.86039 19.276 7.37746 18.6857C7.11004 18.3253 6.78401 18.0334 6.46746 17.8118C6.14333 17.5849 5.86682 17.4248 5.52465 17.3678L5.47871 17.3601H5.43168C5.17035 17.3601 4.91747 17.379 4.68137 17.6489C4.56332 17.7838 4.48195 18.0336 4.5348 18.245C4.58766 18.4564 4.7214 18.5863 4.84105 18.6661C5.60642 19.1763 5.74168 20.1862 6.22137 21.0843C6.66932 21.9769 7.63609 22.4001 8.62434 22.4001H10.0801V25.0896C6.14209 23.6996 3.17234 20.2747 2.42605 16.0739C3.28336 15.9124 4.71898 15.7183 6.6709 15.6911ZM21.2145 15.6954C23.2096 15.7125 24.6855 15.9064 25.5753 16.0706C24.83 20.273 21.8592 23.6992 17.9201 25.0896V22.1759C17.9201 21.2885 17.6287 20.31 17.1217 19.494C16.9677 19.2463 16.7866 19.012 16.5846 18.8017C17.8812 18.5455 18.9462 18.0875 19.7751 17.4465C20.4047 16.9597 20.8812 16.3636 21.2145 15.6954ZM13.2717 19.0959H14.8401C15.2953 19.0959 15.7812 19.4587 16.1701 20.0846C16.5591 20.7106 16.8001 21.5513 16.8001 22.1759V25.4232C15.9027 25.6421 14.9654 25.7601 14.0001 25.7601C13.0348 25.7601 12.0976 25.6421 11.2001 25.4232V22.1759C11.2001 21.5651 11.4621 20.7264 11.8771 20.0978C12.2922 19.4691 12.8165 19.0959 13.2717 19.0959ZM6.89293 19.7576C7.37776 20.2605 7.96473 20.7201 8.84855 20.7201C9.28489 20.7201 9.82951 20.7358 10.347 20.6895C10.3488 20.6893 10.3506 20.6886 10.3525 20.6884C10.2843 20.8844 10.2334 21.0816 10.1906 21.2801H8.62434C7.93367 21.2801 7.44575 21.0306 7.22105 20.5812L7.21668 20.5736L7.2134 20.567C7.12133 20.396 7.00048 20.054 6.89293 19.7576Z" fill="#02C55C"/>
</g>
</svg>
