<?xml version="1.0" encoding="UTF-8" standalone="no"?>
<svg
   width="25"
   height="24"
   viewBox="0 0 25 24"
   fill="none"
   version="1.1"
   id="svg9805"
   sodipodi:docname="icon_github.svg"
   inkscape:version="1.2.2 (b0a84865, 2022-12-01)"
   xmlns:inkscape="http://www.inkscape.org/namespaces/inkscape"
   xmlns:sodipodi="http://sodipodi.sourceforge.net/DTD/sodipodi-0.dtd"
   xmlns="http://www.w3.org/2000/svg"
   xmlns:svg="http://www.w3.org/2000/svg">
  <defs
     id="defs9809" />
  <sodipodi:namedview
     id="namedview9807"
     pagecolor="#ffffff"
     bordercolor="#666666"
     borderopacity="1.0"
     inkscape:showpageshadow="2"
     inkscape:pageopacity="0.0"
     inkscape:pagecheckerboard="0"
     inkscape:deskcolor="#d1d1d1"
     showgrid="false"
     inkscape:zoom="9.8333333"
     inkscape:cx="-0.50847458"
     inkscape:cy="12.559322"
     inkscape:window-width="1309"
     inkscape:window-height="827"
     inkscape:window-x="0"
     inkscape:window-y="25"
     inkscape:window-maximized="0"
     inkscape:current-layer="svg9805" />
  <g
     id="Icon"
     style="fill:#7c4bac;fill-opacity:1">
    <path
       id="Vector"
       d="M12.6664 2.40002C7.36481 2.40002 3.06641 6.69842 3.06641 12C3.06641 16.4984 6.16401 20.2624 10.34 21.304C10.2952 21.1744 10.2664 21.024 10.2664 20.8376V19.1968C9.87681 19.1968 9.22401 19.1968 9.06001 19.1968C8.40321 19.1968 7.81921 18.9144 7.53601 18.3896C7.22161 17.8064 7.16721 16.9144 6.38801 16.3688C6.15681 16.1872 6.33281 15.98 6.59921 16.008C7.09121 16.1472 7.49921 16.4848 7.88321 16.9856C8.26561 17.4872 8.44561 17.6008 9.16001 17.6008C9.50641 17.6008 10.0248 17.5808 10.5128 17.504C10.7752 16.8376 11.2288 16.224 11.7832 15.9344C8.58641 15.6056 7.06081 14.0152 7.06081 11.856C7.06081 10.9264 7.45681 10.0272 8.12961 9.26962C7.90881 8.51762 7.63121 6.98402 8.21441 6.40002C9.65281 6.40002 10.5224 7.33282 10.7312 7.58482C11.448 7.33922 12.2352 7.20002 13.0624 7.20002C13.8912 7.20002 14.6816 7.33922 15.4 7.58642C15.6064 7.33602 16.4768 6.40002 17.9184 6.40002C18.504 6.98482 18.2232 8.52482 18 9.27522C18.6688 10.0312 19.0624 10.928 19.0624 11.856C19.0624 14.0136 17.5392 15.6032 14.3472 15.9336C15.2256 16.392 15.8664 17.68 15.8664 18.6504V20.8376C15.8664 20.9208 15.848 20.9808 15.8384 21.052C19.5792 19.7408 22.2664 16.1888 22.2664 12C22.2664 6.69842 17.968 2.40002 12.6664 2.40002Z"
       fill="#0F0E0E"
       style="fill:#7c4bac;fill-opacity:1" />
  </g>
</svg>
