<?xml version="1.0" encoding="utf-8"?>
<!-- Generator: Adobe Illustrator 27.9.4, SVG Export Plug-In . SVG Version: 9.03 Build 54784)  -->
<svg version="1.1" id="Laag_1" xmlns="http://www.w3.org/2000/svg" xmlns:xlink="http://www.w3.org/1999/xlink" x="0px" y="0px"
	 viewBox="0 0 500 500" style="enable-background:new 0 0 500 500;" xml:space="preserve">
<style type="text/css">
	.st0{fill:#FFFFFF;stroke:#02C55C;stroke-width:10;stroke-linecap:round;stroke-miterlimit:10;}
	.st1{fill:#7C4BAC;}
</style>
<circle class="st0" cx="250.43" cy="250.29" r="224.79"/>
<g>
	<g>
		<path class="st1" d="M111.58,295.48H93.71v-85.66h49.1v14.88h-31.23v22.09h29.06v14.82h-29.06V295.48z"/>
	</g>
</g>
<g>
	<g>
		<path class="st1" d="M233.15,295.48l-6.21-20.39h-31.23l-6.21,20.39h-19.57l30.23-86.02h22.21l30.35,86.02H233.15z M222.6,259.86
			c-5.74-18.48-8.98-28.93-9.7-31.35c-0.72-2.42-1.24-4.34-1.55-5.74c-1.29,5-4.98,17.36-11.07,37.09H222.6z"/>
	</g>
</g>
<g>
	<g>
		<path class="st1" d="M282.71,295.48v-85.66h18.16v85.66H282.71z"/>
	</g>
</g>
<g>
	<g>
		<path class="st1" d="M364.87,262.61v32.87h-18.16v-85.66h24.96c11.64,0,20.25,2.12,25.84,6.36c5.59,4.24,8.38,10.67,8.38,19.31
			c0,5.04-1.39,9.52-4.16,13.45s-6.7,7-11.78,9.23c12.89,19.26,21.29,31.7,25.2,37.32h-20.16l-20.45-32.87H364.87z M364.87,247.85
			h5.86c5.74,0,9.98-0.96,12.71-2.87c2.73-1.91,4.1-4.92,4.1-9.02c0-4.06-1.4-6.95-4.19-8.67c-2.79-1.72-7.12-2.58-12.98-2.58h-5.51
			V247.85z"/>
	</g>
</g>
</svg>
