<?xml version="1.0" encoding="UTF-8" standalone="no"?>
<svg
   width="25"
   height="24"
   viewBox="0 0 25 24"
   fill="none"
   version="1.1"
   id="svg14496"
   sodipodi:docname="icon_linkedin.svg"
   inkscape:version="1.2.2 (b0a84865, 2022-12-01)"
   xmlns:inkscape="http://www.inkscape.org/namespaces/inkscape"
   xmlns:sodipodi="http://sodipodi.sourceforge.net/DTD/sodipodi-0.dtd"
   xmlns="http://www.w3.org/2000/svg"
   xmlns:svg="http://www.w3.org/2000/svg">
  <defs
     id="defs14500" />
  <sodipodi:namedview
     id="namedview14498"
     pagecolor="#ffffff"
     bordercolor="#666666"
     borderopacity="1.0"
     inkscape:showpageshadow="2"
     inkscape:pageopacity="0.0"
     inkscape:pagecheckerboard="0"
     inkscape:deskcolor="#d1d1d1"
     showgrid="false"
     inkscape:zoom="9.8333333"
     inkscape:cx="-0.50847458"
     inkscape:cy="12"
     inkscape:window-width="1309"
     inkscape:window-height="456"
     inkscape:window-x="0"
     inkscape:window-y="25"
     inkscape:window-maximized="0"
     inkscape:current-layer="svg14496" />
  <g
     id="Icon"
     style="fill:#7c4bac;fill-opacity:1">
    <path
       id="Vector"
       fill-rule="evenodd"
       clip-rule="evenodd"
       d="M5.66602 3H19.666C20.7706 3 21.666 3.89543 21.666 5V19C21.666 20.1046 20.7706 21 19.666 21H5.66602C4.56145 21 3.66602 20.1046 3.66602 19V5C3.66602 3.89543 4.56145 3 5.66602 3ZM8.66602 18C8.94216 18 9.16602 17.7761 9.16602 17.5V10.5C9.16602 10.2239 8.94216 10 8.66602 10H7.16602C6.88988 10 6.66602 10.2239 6.66602 10.5V17.5C6.66602 17.7761 6.88988 18 7.16602 18H8.66602ZM7.91602 9C7.08759 9 6.41602 8.32843 6.41602 7.5C6.41602 6.67157 7.08759 6 7.91602 6C8.74445 6 9.41602 6.67157 9.41602 7.5C9.41602 8.32843 8.74445 9 7.91602 9ZM18.166 18C18.4421 18 18.666 17.7761 18.666 17.5V12.9C18.6985 11.3108 17.5236 9.95452 15.946 9.76C14.843 9.65925 13.7743 10.1744 13.166 11.1V10.5C13.166 10.2239 12.9421 10 12.666 10H11.166C10.8899 10 10.666 10.2239 10.666 10.5V17.5C10.666 17.7761 10.8899 18 11.166 18H12.666C12.9421 18 13.166 17.7761 13.166 17.5V13.75C13.166 12.9216 13.8376 12.25 14.666 12.25C15.4944 12.25 16.166 12.9216 16.166 13.75V17.5C16.166 17.7761 16.3899 18 16.666 18H18.166Z"
       fill="black"
       style="fill:#7c4bac;fill-opacity:1" />
  </g>
</svg>
