<?xml version="1.0" encoding="UTF-8" standalone="no"?>
<svg
   width="24.81661"
   height="23.669119"
   viewBox="0 0 24.81661 23.669119"
   fill="none"
   version="1.1"
   id="svg51337"
   sodipodi:docname="note-2.svg"
   inkscape:version="1.2.2 (b0a84865, 2022-12-01)"
   xmlns:inkscape="http://www.inkscape.org/namespaces/inkscape"
   xmlns:sodipodi="http://sodipodi.sourceforge.net/DTD/sodipodi-0.dtd"
   xmlns="http://www.w3.org/2000/svg"
   xmlns:svg="http://www.w3.org/2000/svg">
  <defs
     id="defs51341" />
  <sodipodi:namedview
     id="namedview51339"
     pagecolor="#ffffff"
     bordercolor="#666666"
     borderopacity="1.0"
     inkscape:showpageshadow="2"
     inkscape:pageopacity="0.0"
     inkscape:pagecheckerboard="0"
     inkscape:deskcolor="#d1d1d1"
     showgrid="false"
     inkscape:zoom="23.5"
     inkscape:cx="12.425532"
     inkscape:cy="11.829787"
     inkscape:window-width="1309"
     inkscape:window-height="456"
     inkscape:window-x="0"
     inkscape:window-y="25"
     inkscape:window-maximized="0"
     inkscape:current-layer="svg51337" />
  <g
     id="vuesax/linear/note-2"
     transform="translate(-1.5671627,-2.1666433)">
    <g
       id="note-2">
      <path
         id="Vector"
         d="m 25.2699,12.1801 -1.1433,4.8767 c -0.98,4.2116 -2.9167,5.915 -6.5567,5.565 -0.5833,-0.0467 -1.2133,-0.1517 -1.89,-0.315 l -1.96,-0.4667 C 8.85488,20.6851 7.34988,18.2818 8.49322,13.4051 L 9.63655,8.51676 c 0.23333,-0.99167 0.51335,-1.855 0.86335,-2.56667 1.365,-2.82333 3.6867,-3.58167 7.5833,-2.66 l 1.9484,0.455 c 4.8883,1.14333 6.3816,3.55833 5.2383,8.43501 z"
         stroke="#02c55c"
         stroke-width="1.5"
         stroke-linecap="round"
         stroke-linejoin="round" />
      <path
         id="Vector_2"
         d="m 17.5699,22.6219 c -0.7233,0.49 -1.6333,0.8983 -2.7417,1.26 l -1.8433,0.6066 C 8.35324,25.9819 5.91491,24.7335 4.40991,20.1019 L 2.91658,15.4935 C 1.42324,10.8619 2.65991,8.41186 7.29158,6.91853 L 9.13491,6.31186 C 9.61324,6.1602 10.0682,6.03186 10.4999,5.9502 10.1499,6.66186 9.86991,7.5252 9.63658,8.51686 L 8.49324,13.4052 c -1.14333,4.8767 0.36167,7.28 5.22666,8.435 l 1.96,0.4667 c 0.6767,0.1633 1.3067,0.2683 1.89,0.315 z"
         stroke="#02c55c"
         stroke-width="1.5"
         stroke-linecap="round"
         stroke-linejoin="round" />
      <path
         id="Vector_3"
         d="m 14.7466,9.95166 5.6583,1.43504"
         stroke="#02c55c"
         stroke-width="1.5"
         stroke-linecap="round"
         stroke-linejoin="round" />
      <path
         id="Vector_4"
         d="m 13.6033,14.4668 3.3833,0.8633"
         stroke="#02c55c"
         stroke-width="1.5"
         stroke-linecap="round"
         stroke-linejoin="round" />
    </g>
  </g>
</svg>
