<?xml version="1.0" encoding="UTF-8" standalone="no"?>
<!-- Generator: Adobe Illustrator 24.2.3, SVG Export Plug-In . SVG Version: 6.00 Build 0)  -->

<svg
   version="1.1"
   id="Layer_1"
   x="0px"
   y="0px"
   viewBox="0 0 848.00002 837.00801"
   xml:space="preserve"
   sodipodi:docname="circle.svg"
   inkscape:version="1.2.2 (b0a84865, 2022-12-01)"
   width="848"
   height="837.00806"
   inkscape:export-filename="../../../Google Drive/My Drive/Website graphics/nopipeline/circlemobile.png"
   inkscape:export-xdpi="300"
   inkscape:export-ydpi="300"
   xmlns:inkscape="http://www.inkscape.org/namespaces/inkscape"
   xmlns:sodipodi="http://sodipodi.sourceforge.net/DTD/sodipodi-0.dtd"
   xmlns="http://www.w3.org/2000/svg"
   xmlns:svg="http://www.w3.org/2000/svg"><defs
   id="defs10180">
	
	
<clipPath
   id="clip0_597_1345"><rect
     width="48"
     height="48"
     fill="#ffffff"
     transform="translate(0.27356,0.135742)"
     id="rect7613"
     x="0"
     y="0" /></clipPath><clipPath
   id="clip0_597_1345-1-9-0-8-7-2-2"><rect
     width="48"
     height="48"
     fill="#ffffff"
     transform="translate(0.27356,0.135742)"
     id="rect7613-5-7-6-3-3-0-8"
     x="0"
     y="0" /></clipPath><clipPath
   id="clip0_597_1345-1-9-0-8-7-2-2-6"><rect
     width="48"
     height="48"
     fill="#ffffff"
     transform="translate(0.27356,0.135742)"
     id="rect7613-5-7-6-3-3-0-8-5"
     x="0"
     y="0" /></clipPath><linearGradient
   id="SVGID_1_-5"
   gradientUnits="userSpaceOnUse"
   x1="291.54971"
   y1="266.17291"
   x2="788.84912"
   y2="266.17291">
					<stop
   offset="0"
   style="stop-color:#EAEAEA"
   id="stop9548-9" />
					<stop
   offset="1"
   style="stop-color:#FFFFFF"
   id="stop9550-5" />
				</linearGradient>
		
		<linearGradient
   id="SVGID_2_"
   gradientUnits="userSpaceOnUse"
   x1="304.9472"
   y1="264.51682"
   x2="775.41687"
   y2="264.51682">
			<stop
   offset="0"
   style="stop-color:#FFFFFF"
   id="stop9559" />
			<stop
   offset="1"
   style="stop-color:#EAEAEA"
   id="stop9561" />
		</linearGradient>
		
	
			
				
			
		
		
		<linearGradient
   id="SVGID_4_"
   gradientUnits="userSpaceOnUse"
   x1="628.98712"
   y1="665.76703"
   x2="885.08917"
   y2="665.76703">
			<stop
   offset="0"
   style="stop-color:#FFFFFF"
   id="stop9711" />
			<stop
   offset="1"
   style="stop-color:#EAEAEA"
   id="stop9713" />
		</linearGradient>
		
	
			
				
			
		<inkscape:path-effect
   effect="fill_between_many"
   method="originald"
   linkedpaths="#path8617,0,1|"
   id="path-effect8697" />
				<linearGradient
   id="SVGID_1_"
   gradientUnits="userSpaceOnUse"
   x1="291.54971"
   y1="266.17291"
   x2="788.84912"
   y2="266.17291"
   gradientTransform="translate(-1.6978864,-3.8240561)">
					<stop
   offset="0"
   style="stop-color:#EAEAEA"
   id="stop9548" />
					<stop
   offset="1"
   style="stop-color:#FFFFFF"
   id="stop9550" />
				</linearGradient>
				
			
		
		<linearGradient
   id="SVGID_6_"
   gradientUnits="userSpaceOnUse"
   x1="194.9057"
   y1="670.34747"
   x2="448.89981"
   y2="670.34747">
			<stop
   offset="0"
   style="stop-color:#FFFFFF"
   id="stop9839" />
			<stop
   offset="1"
   style="stop-color:#EAEAEA"
   id="stop9841" />
		</linearGradient>
		
	
			
				
			
		
				<linearGradient
   id="SVGID_5_"
   gradientUnits="userSpaceOnUse"
   x1="185.72771"
   y1="669.87518"
   x2="459.34149"
   y2="669.87518"
   gradientTransform="translate(-9.7050544,7.9404993)">
					<stop
   offset="0"
   style="stop-color:#EAEAEA"
   id="stop9828" />
					<stop
   offset="1"
   style="stop-color:#FFFFFF"
   id="stop9830" />
				</linearGradient>
				
			
				<linearGradient
   id="SVGID_3_"
   gradientUnits="userSpaceOnUse"
   x1="618.71692"
   y1="665.42853"
   x2="894.26721"
   y2="665.42853"
   gradientTransform="translate(12.351888,4.411389)">
					<stop
   offset="0"
   style="stop-color:#EAEAEA"
   id="stop9700" />
					<stop
   offset="1"
   style="stop-color:#FFFFFF"
   id="stop9702" />
				</linearGradient>
				
			</defs><sodipodi:namedview
   id="namedview10178"
   pagecolor="#ffffff"
   bordercolor="#666666"
   borderopacity="1.0"
   inkscape:showpageshadow="2"
   inkscape:pageopacity="0.0"
   inkscape:pagecheckerboard="0"
   inkscape:deskcolor="#d1d1d1"
   showgrid="false"
   inkscape:zoom="0.74225091"
   inkscape:cx="581.3398"
   inkscape:cy="637.92444"
   inkscape:window-width="1728"
   inkscape:window-height="989"
   inkscape:window-x="276"
   inkscape:window-y="53"
   inkscape:window-maximized="0"
   inkscape:current-layer="g10175"
   showguides="true" />
<style
   type="text/css"
   id="style9496">
	.st0{display:none;}
	.st1{display:inline;fill:none;stroke:url(#SVGID_1_);stroke-miterlimit:10;}
	.st2{fill:#723B90;}
	.st3{fill:#2C3E50;}
	.st4{fill:#FFFFFF;}
	.st5{fill:#03C55C;}
	.st6{fill:url(#SVGID_2_);}
	.st7{fill:url(#SVGID_3_);}
	.st8{opacity:0.5;}
	.st9{fill:url(#SVGID_4_);}
	.st10{fill:url(#SVGID_5_);}
	.st11{fill:url(#SVGID_6_);}
	.st12{fill:url(#SVGID_7_);}
	.st13{fill:#F2EDF7;}
	.st14{fill-rule:evenodd;clip-rule:evenodd;fill:#03C55C;fill-opacity:0;stroke:#7C4BAC;stroke-width:0.6932;}
	.st15{fill:#E5DBEF;stroke:#7C4BAC;stroke-width:0.7431;stroke-linejoin:round;stroke-miterlimit:10;}
	.st16{fill:none;stroke:#7C4BAC;stroke-width:0.7431;stroke-linejoin:round;stroke-miterlimit:10;}
	.st17{fill-rule:evenodd;clip-rule:evenodd;fill:#2C3E50;}
	.st18{fill-rule:evenodd;clip-rule:evenodd;fill:#F2EDF7;}
	.st19{fill:none;stroke:#7C4BAC;stroke-width:1.0756;stroke-linejoin:round;}
	.st20{fill:url(#SVGID_8_);}
	.st21{fill:url(#SVGID_9_);}
	.st22{fill:url(#SVGID_10_);}
	.st23{fill:url(#SVGID_11_);}
	.st24{fill:url(#SVGID_12_);}
	.st25{fill:url(#SVGID_13_);}
	.st26{fill:url(#SVGID_14_);}
	.st27{fill:url(#SVGID_15_);}
	.st28{fill:url(#SVGID_16_);}
	.st29{fill:url(#SVGID_17_);}
	.st30{fill:url(#SVGID_18_);}
	.st31{fill:url(#SVGID_19_);}
</style>

<g
   id="g10175"
   transform="translate(-115.99919,-122.2025)">
	<path
   id="path8704"
   style="fill:#03c55c;fill-opacity:1"
   class="st5 UnoptimicedTransforms"
   inkscape:transform-center-x="-88.227774"
   inkscape:transform-center-y="-73.229053"
   d="M 539.82536 122.2025 A 428.96179 425.1506 0 0 0 377.7531 154.66148 C 363.48044 160.94302 349.54517 168.0119 336.0695 175.92906 C 279.0698 209.39889 230.58985 256.90973 195.88005 313.32945 L 188.86833 324.72008 L 245.38396 357.33141 C 242.66079 361.44832 241.36967 366.42752 242.12028 371.43297 C 243.25503 379 250.01418 386.41035 257.76286 388.58141 C 267.50379 391.31063 277.7048 386.82499 282.65739 378.83922 L 332.99138 407.88609 A 249.10748 251.25761 0 0 1 540.57731 294.35289 A 249.10748 251.25761 0 0 1 744.59294 402.38805 L 790.23747 375.75719 L 788.71989 373.09898 C 786.78993 369.739 785.8195 366.04951 785.8195 362.15953 C 785.8195 349.98958 795.71963 340.08922 807.89958 340.08922 C 815.71953 340.08922 823.02993 344.29018 826.96989 351.05016 L 828.39763 353.49156 L 888.13591 318.63609 L 886.67888 316.22008 C 852.23904 259.20038 803.66984 211.04991 746.21013 176.97008 C 726.09564 165.04157 704.999 154.93782 683.21208 146.68687 A 428.96179 425.1506 0 0 0 541.06169 122.2318 L 540.18864 123.92906 L 540.18864 122.21227 A 428.96179 425.1506 0 0 0 539.82536 122.2025 z M 538.47185 186.39586 L 539.59294 186.39586 C 569.96291 186.45586 600.0818 190.61548 629.14177 198.74547 C 657.37174 206.63546 684.49265 218.24572 709.77263 233.2357 C 738.2726 250.14569 764.59156 271.64557 787.15153 296.32555 L 735.87224 338.17516 C 684.88229 283.22521 614.12185 252.14586 538.30192 252.14586 C 462.612 252.14586 391.65172 283.30654 340.64177 338.28648 L 289.85271 296.61656 C 312.83268 271.36659 339.72219 249.44655 368.79216 232.36656 C 393.95213 217.57658 420.95242 206.15538 449.03239 198.41539 C 477.97236 190.4354 508.06188 186.39586 538.47185 186.39586 z " />
	
	
	
	<g
   id="g9616"
   transform="translate(6.1759441,-3.5291158)">
		<g
   class="st8"
   id="g9588">
			<path
   d="m 402.77,275.82 -12.98,-26.55 7.36,-3.6 21.4,9.56 -3.41,1.67 -7.9,-16.16 8.72,-4.26 12.98,26.55 -7.36,3.6 -21.4,-9.56 3.41,-1.67 7.9,16.16 z"
   id="path9568" />
			<path
   d="m 449.46,256.28 c -2.29,0.78 -4.52,1.14 -6.7,1.08 -2.18,-0.06 -4.2,-0.51 -6.06,-1.35 -1.86,-0.84 -3.49,-2.02 -4.88,-3.53 -1.39,-1.52 -2.45,-3.33 -3.17,-5.43 -0.73,-2.13 -1,-4.22 -0.82,-6.26 0.18,-2.04 0.75,-3.96 1.72,-5.76 0.96,-1.8 2.29,-3.39 3.98,-4.77 1.69,-1.38 3.66,-2.45 5.93,-3.22 2.29,-0.78 4.52,-1.14 6.68,-1.07 2.16,0.07 4.17,0.52 6.04,1.36 1.86,0.84 3.49,2.01 4.88,3.51 1.39,1.5 2.45,3.32 3.17,5.45 0.72,2.1 0.99,4.18 0.81,6.24 -0.18,2.05 -0.75,3.98 -1.71,5.78 -0.96,1.8 -2.28,3.39 -3.95,4.76 -1.69,1.37 -3.66,2.44 -5.92,3.21 z m -2.64,-7.62 c 0.88,-0.3 1.64,-0.74 2.29,-1.32 0.65,-0.58 1.16,-1.27 1.53,-2.06 0.37,-0.79 0.57,-1.68 0.59,-2.65 0.02,-0.97 -0.15,-2.01 -0.52,-3.1 -0.37,-1.09 -0.87,-2.02 -1.48,-2.77 -0.61,-0.76 -1.31,-1.34 -2.09,-1.74 -0.78,-0.4 -1.6,-0.64 -2.47,-0.7 -0.87,-0.06 -1.74,0.06 -2.62,0.36 -0.88,0.3 -1.64,0.74 -2.29,1.32 -0.65,0.58 -1.16,1.26 -1.53,2.06 -0.37,0.79 -0.56,1.68 -0.59,2.65 -0.03,0.98 0.15,2.01 0.52,3.1 0.37,1.09 0.87,2.02 1.48,2.77 0.61,0.76 1.31,1.34 2.09,1.74 0.78,0.4 1.6,0.64 2.47,0.7 0.87,0.06 1.74,-0.06 2.62,-0.36 z"
   id="path9570" />
			<path
   d="m 469.76,249.19 -6.05,-28.93 13.93,-2.91 c 2.7,-0.56 5.13,-0.61 7.28,-0.14 2.15,0.47 3.94,1.41 5.36,2.83 1.42,1.42 2.36,3.24 2.82,5.47 0.47,2.23 0.33,4.27 -0.4,6.12 -0.74,1.85 -1.99,3.43 -3.78,4.74 -1.78,1.31 -4.02,2.24 -6.72,2.81 l -8.51,1.78 3.47,-5.08 2.36,11.28 z m 7.62,-12.24 -5.26,-3.52 7.89,-1.65 c 1.35,-0.28 2.28,-0.79 2.81,-1.54 0.52,-0.74 0.67,-1.64 0.45,-2.68 -0.22,-1.05 -0.72,-1.81 -1.49,-2.28 -0.78,-0.47 -1.84,-0.56 -3.19,-0.28 l -7.89,1.65 3.42,-5.33 z"
   id="path9572" />
			<path
   d="m 501.65,243.14 -3.59,-29.33 9.89,-1.21 3.59,29.33 z"
   id="path9574" />
			<path
   d="m 517.8,241.08 -1.08,-29.53 14.22,-0.52 c 2.76,-0.1 5.16,0.26 7.2,1.09 2.04,0.83 3.64,2.06 4.8,3.69 1.16,1.63 1.78,3.59 1.86,5.87 0.08,2.28 -0.39,4.27 -1.43,5.97 -1.04,1.7 -2.54,3.04 -4.52,4.03 -1.98,0.99 -4.34,1.53 -7.1,1.63 l -8.69,0.32 4.27,-4.42 0.42,11.52 z m 9.57,-10.78 -4.59,-4.35 8.06,-0.3 c 1.38,-0.05 2.39,-0.4 3.02,-1.04 0.64,-0.64 0.94,-1.5 0.9,-2.57 -0.04,-1.07 -0.4,-1.9 -1.08,-2.5 -0.68,-0.59 -1.72,-0.87 -3.09,-0.82 l -8.06,0.3 4.26,-4.68 z"
   id="path9576" />
			<path
   d="m 560.38,233.46 14.74,1.02 -0.52,7.5 -24.51,-1.69 2.04,-29.48 23.97,1.65 -0.52,7.5 -14.19,-0.98 z m 0.09,-11.08 13.14,0.91 -0.49,7.16 -13.14,-0.91 z"
   id="path9578" />
			<path
   d="m 579.8,242.7 4.95,-29.14 9.82,1.67 -3.66,21.52 13.15,2.23 -1.29,7.62 z"
   id="path9580" />
			<path
   d="m 606.94,247.77 7.17,-28.67 9.67,2.42 -7.17,28.67 z"
   id="path9582" />
			<path
   d="m 622.76,251.58 9.74,-27.9 7.73,2.7 8.27,21.93 -3.59,-1.25 5.92,-16.98 9.17,3.2 -9.74,27.9 -7.73,-2.7 -8.27,-21.93 3.59,1.25 -5.92,16.98 z"
   id="path9584" />
			<path
   d="m 667.94,261.14 13.31,6.42 -3.27,6.77 -22.13,-10.67 12.84,-26.62 21.64,10.44 -3.26,6.77 -12.81,-6.18 z m 4.2,-10.25 11.86,5.72 -3.12,6.46 -11.86,-5.72 z"
   id="path9586" />
		</g>
		<g
   id="g9614">
			<g
   id="g9612">
				<g
   id="g9610">
					<path
   class="st5"
   d="m 400.93,273.98 -12.98,-26.55 7.36,-3.6 21.4,9.56 -3.41,1.67 -7.9,-16.16 8.72,-4.26 12.98,26.55 -7.36,3.6 -21.4,-9.56 3.41,-1.67 7.9,16.16 z"
   id="path9590" />
					<path
   class="st5"
   d="m 447.62,254.45 c -2.29,0.78 -4.52,1.14 -6.7,1.08 -2.18,-0.06 -4.2,-0.51 -6.06,-1.35 -1.86,-0.84 -3.49,-2.02 -4.88,-3.53 -1.39,-1.52 -2.45,-3.33 -3.17,-5.43 -0.73,-2.13 -1,-4.22 -0.82,-6.26 0.18,-2.04 0.75,-3.96 1.72,-5.76 0.96,-1.8 2.29,-3.39 3.98,-4.77 1.69,-1.38 3.66,-2.45 5.93,-3.22 2.29,-0.78 4.52,-1.14 6.68,-1.07 2.16,0.07 4.17,0.52 6.04,1.36 1.86,0.84 3.49,2.01 4.88,3.51 1.39,1.5 2.45,3.32 3.17,5.45 0.72,2.1 0.99,4.18 0.81,6.24 -0.18,2.05 -0.75,3.98 -1.71,5.78 -0.96,1.8 -2.28,3.39 -3.95,4.76 -1.68,1.37 -3.65,2.44 -5.92,3.21 z m -2.64,-7.62 c 0.88,-0.3 1.64,-0.74 2.29,-1.32 0.65,-0.58 1.16,-1.27 1.53,-2.06 0.37,-0.79 0.57,-1.68 0.59,-2.65 0.02,-0.97 -0.15,-2.01 -0.52,-3.1 -0.37,-1.09 -0.87,-2.02 -1.48,-2.77 -0.61,-0.76 -1.31,-1.34 -2.09,-1.74 -0.78,-0.4 -1.6,-0.64 -2.47,-0.7 -0.87,-0.06 -1.74,0.06 -2.62,0.36 -0.88,0.3 -1.64,0.74 -2.29,1.32 -0.65,0.58 -1.16,1.26 -1.53,2.06 -0.37,0.79 -0.56,1.68 -0.59,2.65 -0.03,0.98 0.15,2.01 0.52,3.1 0.37,1.09 0.87,2.02 1.48,2.77 0.61,0.76 1.31,1.34 2.09,1.74 0.78,0.4 1.6,0.64 2.47,0.7 0.87,0.06 1.74,-0.06 2.62,-0.36 z"
   id="path9592" />
					<path
   class="st5"
   d="m 467.92,247.36 -6.05,-28.93 13.93,-2.91 c 2.7,-0.56 5.13,-0.61 7.28,-0.14 2.15,0.47 3.94,1.41 5.36,2.83 1.42,1.42 2.36,3.24 2.82,5.47 0.47,2.23 0.33,4.27 -0.4,6.12 -0.74,1.85 -1.99,3.43 -3.78,4.74 -1.78,1.31 -4.02,2.24 -6.72,2.81 l -8.51,1.78 3.47,-5.08 2.36,11.28 z m 7.62,-12.25 -5.26,-3.52 7.89,-1.65 c 1.35,-0.28 2.28,-0.79 2.81,-1.54 0.52,-0.74 0.67,-1.64 0.45,-2.68 -0.22,-1.05 -0.72,-1.81 -1.49,-2.28 -0.78,-0.47 -1.84,-0.56 -3.19,-0.28 l -7.89,1.65 3.42,-5.33 z"
   id="path9594" />
					<path
   class="st5"
   d="m 499.81,241.3 -3.59,-29.33 9.89,-1.21 3.59,29.33 z"
   id="path9596" />
					<path
   class="st5"
   d="m 515.96,239.25 -1.08,-29.53 14.22,-0.52 c 2.76,-0.1 5.16,0.26 7.2,1.09 2.04,0.83 3.64,2.06 4.8,3.69 1.16,1.63 1.78,3.59 1.86,5.87 0.08,2.28 -0.39,4.27 -1.43,5.97 -1.04,1.7 -2.54,3.04 -4.52,4.03 -1.98,0.99 -4.34,1.53 -7.1,1.63 l -8.69,0.32 4.27,-4.42 0.42,11.52 z m 9.58,-10.79 -4.59,-4.35 8.06,-0.3 c 1.38,-0.05 2.39,-0.4 3.02,-1.04 0.64,-0.64 0.94,-1.5 0.9,-2.57 -0.04,-1.07 -0.4,-1.9 -1.08,-2.5 -0.68,-0.59 -1.72,-0.87 -3.09,-0.82 l -8.06,0.3 4.26,-4.68 z"
   id="path9598" />
					<path
   class="st5"
   d="m 558.54,231.62 14.74,1.02 -0.52,7.5 -24.51,-1.69 2.04,-29.48 23.97,1.65 -0.52,7.5 -14.19,-0.98 z m 0.09,-11.08 13.14,0.91 -0.49,7.16 -13.14,-0.91 z"
   id="path9600" />
					<path
   class="st5"
   d="m 577.97,240.86 4.95,-29.14 9.82,1.67 -3.66,21.52 13.15,2.23 -1.29,7.62 z"
   id="path9602" />
					<path
   class="st5"
   d="m 605.11,245.94 7.17,-28.67 9.67,2.42 -7.17,28.67 z"
   id="path9604" />
					<path
   class="st5"
   d="m 620.93,249.74 9.74,-27.9 7.73,2.7 8.27,21.93 -3.59,-1.25 5.92,-16.98 9.17,3.2 -9.74,27.9 -7.73,-2.7 -8.27,-21.93 3.59,1.25 -5.92,16.98 z"
   id="path9606" />
					<path
   class="st5"
   d="m 666.11,259.31 13.31,6.42 -3.27,6.77 -22.13,-10.67 12.84,-26.62 21.64,10.44 -3.26,6.77 -12.81,-6.18 z m 4.19,-10.26 11.86,5.72 -3.12,6.46 -11.86,-5.72 z"
   id="path9608" />
				</g>
			</g>
		</g>
	</g>
	
	<path
   id="path9696"
   class="st2"
   d="M 908.83903 350.42906 L 846.66716 386.32359 A 22.330252 21.489155 0 0 0 828.22575 376.94273 A 22.330252 21.489155 0 0 0 805.89567 398.43297 A 22.330252 21.489155 0 0 0 808.48552 408.36656 L 763.81169 434.15758 A 249.10748 251.25761 0 0 1 789.68474 545.6107 A 249.10748 251.25761 0 0 1 564.96989 795.10875 L 564.96989 852.28844 L 570.46013 852.28844 C 574.3401 852.28844 578.02889 853.27986 581.42888 855.22984 C 591.98884 861.27982 595.64876 874.79902 589.5988 885.34898 C 585.6688 892.19895 578.31954 896.44859 570.39958 896.44859 L 564.96989 896.44859 L 564.96989 959.03258 L 570.72966 958.89 C 639.16939 957.17002 706.62951 937.72939 765.82927 902.65953 C 823.37904 868.55967 871.99017 820.48953 906.38005 763.64977 L 913.66911 751.60875 L 913.10856 751.32945 C 929.1185 722.59919 941.55883 691.98855 950.0988 660.27867 C 959.31876 626.08881 963.99919 590.60978 963.99919 554.80992 C 963.99919 519.03006 959.30946 483.51924 950.0695 449.24937 C 941.91954 419.0495 930.18834 389.74941 915.19841 362.15953 L 908.83903 350.42906 z M 889.67106 452.60094 C 891.62106 458.50093 893.41239 464.46055 895.03239 470.45055 C 902.72239 498.94052 906.62224 528.49089 906.62224 558.27086 C 906.62224 588.04083 902.74145 617.55159 895.07146 645.99156 C 887.64146 673.56153 876.65277 700.14182 862.43278 724.9818 L 855.03239 737.89195 C 826.70242 782.54191 787.68118 820.34112 741.83122 847.51109 C 710.37125 866.15108 676.09095 879.49235 640.59099 887.04234 L 639.12224 876.8607 L 631.06169 820.78062 C 751.03157 793.38065 840.53239 686.01143 840.53239 557.74156 C 840.53239 528.77159 835.97285 500.88177 827.51286 474.7318 L 833.40153 472.64195 L 889.67106 452.60094 z " /><ellipse
   style="vector-effect:non-scaling-stroke;fill:#03c55c;fill-opacity:1;fill-rule:evenodd;stroke:none;stroke-width:0.999995;stroke-linejoin:round;stroke-opacity:1;-inkscape-stroke:hairline"
   id="path19248-5-9-5"
   cx="827.81726"
   cy="398.19736"
   rx="22.0867"
   ry="22.065245"
   inkscape:transform-center-x="-1.7379534"
   inkscape:transform-center-y="12.165674" />
	
	<g
   id="g9748"
   transform="translate(9.0582218,8.1759441)">
		<g
   class="st8"
   id="g9730">
			<path
   d="M 793.53,770.35 763.15,760 l 7.14,-8 25.39,9.02 -4.24,4.76 -11.65,-24.42 6.52,-7.31 13.73,29 z"
   id="path9720" />
			<path
   d="m 810.89,749.8 -23.65,-17.72 5.97,-7.97 23.65,17.72 z"
   id="path9722" />
			<path
   d="m 820.34,737.72 -18.31,-26.55 5.16,-8.33 31.92,4.59 -5.43,8.76 -26.13,-4.97 2.05,-3.3 16.07,21.19 z m -0.33,-9.24 -4.77,-5.93 7.16,-11.55 7.43,1.63 z"
   id="path9724" />
			<path
   d="m 846.91,692.62 c -1.07,2.23 -2.36,4.27 -3.86,6.11 -1.5,1.84 -2.98,3.24 -4.44,4.19 l -5.16,-6.03 c 1.34,-0.92 2.61,-2.05 3.8,-3.4 1.19,-1.35 2.14,-2.76 2.84,-4.23 0.41,-0.86 0.68,-1.57 0.8,-2.12 0.12,-0.55 0.13,-0.99 0.02,-1.32 -0.11,-0.33 -0.31,-0.57 -0.62,-0.72 -0.48,-0.23 -0.99,-0.15 -1.52,0.25 -0.54,0.4 -1.11,0.99 -1.72,1.78 -0.61,0.79 -1.27,1.65 -1.99,2.58 -0.71,0.94 -1.5,1.85 -2.36,2.73 -0.86,0.88 -1.79,1.62 -2.79,2.22 -1,0.6 -2.11,0.93 -3.32,1.01 -1.21,0.08 -2.52,-0.22 -3.94,-0.91 -1.65,-0.79 -2.93,-1.97 -3.85,-3.55 -0.92,-1.58 -1.34,-3.48 -1.27,-5.71 0.07,-2.23 0.76,-4.71 2.07,-7.46 0.86,-1.8 1.9,-3.49 3.12,-5.06 1.22,-1.57 2.56,-2.86 4.01,-3.88 l 5.22,5.82 c -1.29,1 -2.4,2.04 -3.32,3.12 -0.92,1.07 -1.66,2.19 -2.22,3.36 -0.41,0.86 -0.67,1.59 -0.75,2.17 -0.09,0.58 -0.06,1.04 0.09,1.38 0.15,0.34 0.38,0.58 0.68,0.73 0.46,0.22 0.95,0.13 1.47,-0.28 0.52,-0.41 1.08,-1 1.68,-1.79 0.6,-0.79 1.25,-1.67 1.96,-2.62 0.71,-0.95 1.49,-1.87 2.34,-2.74 0.85,-0.87 1.78,-1.6 2.79,-2.2 1,-0.6 2.1,-0.94 3.3,-1.02 1.19,-0.08 2.49,0.21 3.89,0.88 1.62,0.78 2.89,1.96 3.81,3.53 0.91,1.58 1.35,3.48 1.3,5.7 -0.05,2.22 -0.73,4.72 -2.06,7.48 z"
   id="path9726" />
			<path
   d="m 858.3,664 -3.29,9.41 -27.9,-9.76 3.29,-9.41 z m -24.86,-18.44 3.29,-9.41 27.89,9.76 -3.29,9.4 z m 17.84,5.52 -3.49,9.96 -7.73,-2.71 3.49,-9.96 z"
   id="path9728" />
		</g>
		<g
   id="g9746">
			<g
   id="g9744">
				<g
   id="g9742">
					<path
   class="st2"
   d="m 791.69,768.52 -30.37,-10.35 7.14,-8 25.39,9.02 -4.24,4.76 -11.65,-24.42 6.52,-7.31 13.73,29 z"
   id="path9732" />
					<path
   class="st2"
   d="m 809.05,747.96 -23.65,-17.72 5.97,-7.97 23.65,17.72 z"
   id="path9734" />
					<path
   class="st2"
   d="m 818.51,735.89 -18.31,-26.55 5.16,-8.33 31.92,4.59 -5.43,8.76 -26.13,-4.97 2.05,-3.3 16.07,21.19 z m -0.33,-9.25 -4.77,-5.93 7.16,-11.55 7.43,1.63 z"
   id="path9736" />
					<path
   class="st2"
   d="m 845.08,690.79 c -1.07,2.23 -2.36,4.27 -3.86,6.11 -1.5,1.84 -2.98,3.24 -4.44,4.19 l -5.16,-6.03 c 1.34,-0.92 2.61,-2.05 3.8,-3.4 1.19,-1.35 2.14,-2.76 2.84,-4.23 0.41,-0.86 0.68,-1.57 0.8,-2.12 0.12,-0.55 0.13,-0.99 0.02,-1.32 -0.11,-0.33 -0.31,-0.57 -0.62,-0.72 -0.48,-0.23 -0.99,-0.15 -1.52,0.25 -0.54,0.4 -1.11,0.99 -1.72,1.78 -0.61,0.79 -1.27,1.65 -1.99,2.58 -0.71,0.94 -1.5,1.85 -2.36,2.73 -0.86,0.88 -1.79,1.62 -2.79,2.22 -1,0.6 -2.11,0.93 -3.32,1.01 -1.21,0.08 -2.52,-0.22 -3.94,-0.91 -1.65,-0.79 -2.93,-1.97 -3.85,-3.55 -0.92,-1.58 -1.34,-3.48 -1.27,-5.71 0.07,-2.23 0.76,-4.71 2.07,-7.46 0.86,-1.8 1.9,-3.49 3.12,-5.06 1.22,-1.57 2.56,-2.86 4.01,-3.88 l 5.22,5.82 c -1.29,1 -2.4,2.04 -3.32,3.12 -0.92,1.07 -1.66,2.19 -2.22,3.36 -0.41,0.86 -0.67,1.59 -0.75,2.17 -0.09,0.58 -0.06,1.04 0.09,1.38 0.15,0.34 0.38,0.58 0.68,0.73 0.46,0.22 0.95,0.13 1.47,-0.28 0.52,-0.41 1.08,-1 1.68,-1.79 0.6,-0.79 1.25,-1.67 1.96,-2.62 0.71,-0.95 1.49,-1.87 2.34,-2.74 0.85,-0.87 1.78,-1.6 2.79,-2.2 1,-0.6 2.1,-0.94 3.3,-1.02 1.19,-0.08 2.49,0.21 3.89,0.88 1.62,0.78 2.89,1.96 3.81,3.53 0.91,1.58 1.35,3.48 1.3,5.7 -0.05,2.22 -0.74,4.71 -2.06,7.48 z"
   id="path9738" />
					<path
   class="st2"
   d="m 856.46,662.17 -3.29,9.41 -27.9,-9.76 3.29,-9.41 z m -24.85,-18.45 3.29,-9.41 27.89,9.76 -3.29,9.4 z m 17.83,5.52 -3.49,9.96 -7.73,-2.71 3.49,-9.96 z"
   id="path9740" />
				</g>
			</g>
		</g>
	</g>
	
	<path
   id="path9824"
   class="st3"
   d="M 168.20622 356.03648 L 166.46013 359.18883 C 150.96018 387.13873 138.8298 416.89864 130.38981 447.61852 C 120.83985 482.39838 115.99919 518.47006 115.99919 554.80992 C 115.99919 591.18978 120.83837 627.25928 130.36833 662.00914 C 139.59829 695.669 153.24919 728.09035 170.91911 758.38023 C 205.91898 818.29999 256.11927 868.56045 316.08903 903.71031 C 346.43891 921.49024 378.98965 935.22848 412.8195 944.53844 C 445.09938 953.4284 478.5887 958.2786 512.35856 958.94859 L 525.61833 959.21031 L 525.61833 893.16148 C 536.97517 893.99313 547.8383 885.79006 549.18474 874.38414 C 550.7111 861.45405 538.80728 850.27442 525.61833 851.32555 L 525.61833 795.78844 A 249.10748 251.25761 0 0 1 291.46989 545.6107 A 249.10748 251.25761 0 0 1 314.40739 440.44469 L 264.29411 411.51305 L 262.63005 414.42906 C 258.70005 421.28904 251.34838 425.55992 243.44841 425.55992 C 231.27846 425.55992 221.38005 415.65957 221.38005 403.48961 C 221.38005 399.57963 222.40833 395.74975 224.36833 392.39977 L 226.08903 389.45641 L 168.20622 356.03648 z M 189.93474 465.81969 L 251.78435 489.39 C 245.47435 512.27998 242.09489 536.40042 242.09489 561.29039 C 242.10489 688.87026 330.64603 795.78003 449.63591 823.89 L 438.65544 889.81969 C 433.34545 888.63969 428.06536 887.32023 422.82536 885.88023 C 394.71539 878.14024 367.65518 866.721 342.41521 851.93102 C 292.53526 822.69104 250.78518 780.89011 221.66521 731.05016 C 206.98522 705.90018 195.63403 678.96028 187.96403 650.96031 C 180.03404 622.08034 176.01481 592.07989 176.01481 561.80992 C 176.01481 531.55995 180.04553 501.5695 187.98552 472.65953 C 188.60552 470.36953 189.26474 468.09969 189.93474 465.81969 z " />
	
	<g
   id="g9888"
   transform="rotate(-2.0646662,593.2404,913.54698)">
		<g
   class="st8"
   id="g9864">
			<path
   d="m 207.28,582.47 28.11,-15.47 1.1,10.67 -23.78,12.68 -0.65,-6.34 25.89,7.85 1,9.74 -30.68,-9.4 z"
   id="path9848" />
			<path
   d="m 210.76,609.15 29.03,-5.52 1.86,9.79 -29.03,5.52 z"
   id="path9850" />
			<path
   d="m 213.18,624.44 31.99,4.09 2.75,9.4 -24.73,20.7 -2.89,-9.89 21.14,-16.13 1.09,3.73 -26.5,-2.18 z m 7.1,5.93 7.6,0.42 3.82,13.05 -6.18,4.45 z"
   id="path9852" />
			<path
   d="m 228.65,674.29 c -0.93,-2.3 -1.56,-4.62 -1.91,-6.97 -0.34,-2.35 -0.38,-4.39 -0.1,-6.11 l 7.94,0.25 c -0.23,1.61 -0.25,3.31 -0.06,5.1 0.19,1.79 0.59,3.44 1.21,4.95 0.36,0.89 0.7,1.56 1.02,2.02 0.32,0.46 0.64,0.77 0.96,0.91 0.32,0.15 0.63,0.15 0.95,0.03 0.49,-0.2 0.78,-0.63 0.84,-1.3 0.06,-0.67 0.01,-1.49 -0.15,-2.46 -0.16,-0.97 -0.36,-2.05 -0.57,-3.21 -0.21,-1.16 -0.35,-2.35 -0.42,-3.58 -0.07,-1.23 0.01,-2.42 0.25,-3.56 0.24,-1.14 0.73,-2.19 1.49,-3.13 0.76,-0.94 1.87,-1.71 3.33,-2.3 1.7,-0.69 3.43,-0.83 5.22,-0.45 1.79,0.38 3.47,1.36 5.07,2.91 1.6,1.55 2.97,3.74 4.11,6.56 0.75,1.85 1.29,3.76 1.63,5.72 0.34,1.96 0.39,3.82 0.16,5.58 l -7.82,-0.07 c 0.13,-1.63 0.11,-3.15 -0.06,-4.55 -0.17,-1.4 -0.5,-2.71 -0.99,-3.9 -0.36,-0.89 -0.72,-1.56 -1.09,-2.02 -0.37,-0.46 -0.73,-0.75 -1.08,-0.86 -0.35,-0.11 -0.68,-0.11 -1,0.02 -0.47,0.19 -0.73,0.61 -0.78,1.27 -0.05,0.66 0.01,1.48 0.19,2.45 0.18,0.97 0.39,2.04 0.62,3.21 0.23,1.17 0.38,2.36 0.45,3.58 0.07,1.22 -0.02,2.4 -0.25,3.54 -0.24,1.14 -0.73,2.18 -1.47,3.12 -0.74,0.94 -1.83,1.7 -3.27,2.28 -1.67,0.68 -3.4,0.82 -5.18,0.43 -1.78,-0.39 -3.48,-1.35 -5.08,-2.89 -1.63,-1.54 -3.01,-3.73 -4.16,-6.57 z"
   id="path9854" />
			<path
   d="m 242.12,702.01 -4.73,-8.77 26.01,-14.03 4.73,8.77 z m 30.38,-5.93 4.73,8.77 -26.01,14.03 -4.73,-8.77 z m -16.11,9.45 -5.01,-9.29 7.21,-3.89 5.01,9.29 z"
   id="path9856" />
			<path
   d="m 271.02,747.52 -6.16,-7.83 23.24,-18.26 6.16,7.83 z m 28.92,-11.03 6.16,7.83 -23.24,18.26 -6.16,-7.83 z m -14.25,12.07 -6.52,-8.3 6.44,-5.06 6.52,8.3 z"
   id="path9858" />
			<path
   d="m 298.47,779.88 c -3.21,-3.2 -4.84,-6.56 -4.9,-10.09 -0.06,-3.52 1.47,-6.85 4.59,-9.97 l 11.49,-11.5 7.05,7.04 -11.28,11.29 c -1.59,1.59 -2.43,3.01 -2.52,4.26 -0.09,1.24 0.35,2.35 1.33,3.33 1,1 2.11,1.44 3.34,1.34 1.23,-0.1 2.65,-0.95 4.24,-2.54 l 11.28,-11.29 6.93,6.92 -11.49,11.5 c -3.12,3.12 -6.45,4.66 -9.97,4.6 -3.52,-0.06 -6.88,-1.69 -10.09,-4.89 z"
   id="path9860" />
			<path
   d="m 315.74,795.41 18.31,-23.2 12.39,9.79 c 3.2,2.53 5.12,4.96 5.74,7.3 0.63,2.34 0.24,4.4 -1.15,6.16 -0.92,1.17 -2.08,1.96 -3.45,2.36 -1.38,0.4 -2.89,0.38 -4.55,-0.07 -1.66,-0.45 -3.39,-1.39 -5.2,-2.82 l 2.08,-1.27 c 1.81,1.43 3.17,2.92 4.09,4.46 0.92,1.54 1.35,3.08 1.31,4.61 -0.04,1.53 -0.59,2.97 -1.66,4.31 -1.59,2.01 -3.66,2.92 -6.22,2.73 -2.56,-0.19 -5.44,-1.55 -8.64,-4.08 z m 12,0.6 4.71,3.71 c 0.86,0.68 1.63,1.04 2.3,1.07 0.67,0.03 1.25,-0.25 1.72,-0.85 0.47,-0.6 0.61,-1.22 0.43,-1.87 -0.19,-0.65 -0.71,-1.31 -1.57,-1.99 l -5.24,-4.13 4.08,-5.17 4.17,3.3 c 0.88,0.7 1.65,1.06 2.29,1.08 0.64,0.02 1.18,-0.24 1.62,-0.79 0.45,-0.57 0.59,-1.17 0.41,-1.78 -0.18,-0.61 -0.71,-1.26 -1.6,-1.96 l -3.65,-2.88 z"
   id="path9862" />
		</g>
		<g
   id="g9886">
			<g
   id="g9884">
				<g
   id="g9882">
					<path
   class="st3"
   d="m 205.44,580.63 28.11,-15.46 1.1,10.67 -23.78,12.68 -0.65,-6.34 25.89,7.85 1,9.74 -30.68,-9.4 z"
   id="path9866" />
					<path
   class="st3"
   d="m 208.93,607.32 29.03,-5.52 1.86,9.79 -29.03,5.52 z"
   id="path9868" />
					<path
   class="st3"
   d="m 211.34,622.6 31.99,4.09 2.75,9.4 -24.73,20.7 -2.89,-9.89 21.14,-16.13 1.09,3.73 -26.5,-2.18 z m 7.1,5.93 7.6,0.42 3.82,13.05 -6.18,4.45 z"
   id="path9870" />
					<path
   class="st3"
   d="m 226.82,672.45 c -0.93,-2.3 -1.56,-4.62 -1.91,-6.97 -0.34,-2.35 -0.38,-4.39 -0.1,-6.11 l 7.94,0.25 c -0.23,1.61 -0.25,3.31 -0.06,5.1 0.19,1.79 0.59,3.44 1.21,4.95 0.36,0.89 0.7,1.56 1.02,2.02 0.32,0.46 0.64,0.77 0.96,0.91 0.32,0.15 0.63,0.15 0.95,0.03 0.49,-0.2 0.78,-0.63 0.84,-1.3 0.06,-0.67 0.01,-1.49 -0.15,-2.46 -0.16,-0.97 -0.36,-2.05 -0.57,-3.21 -0.21,-1.16 -0.35,-2.35 -0.42,-3.58 -0.07,-1.23 0.01,-2.42 0.25,-3.56 0.24,-1.14 0.73,-2.19 1.49,-3.13 0.76,-0.94 1.87,-1.71 3.33,-2.3 1.7,-0.69 3.43,-0.83 5.22,-0.45 1.79,0.38 3.47,1.36 5.07,2.91 1.6,1.55 2.97,3.74 4.11,6.56 0.75,1.85 1.29,3.76 1.63,5.72 0.34,1.96 0.39,3.82 0.16,5.58 l -7.82,-0.07 c 0.13,-1.63 0.11,-3.15 -0.06,-4.55 -0.17,-1.4 -0.5,-2.71 -0.99,-3.9 -0.36,-0.89 -0.72,-1.56 -1.09,-2.02 -0.37,-0.46 -0.73,-0.75 -1.08,-0.86 -0.35,-0.11 -0.68,-0.11 -1,0.02 -0.47,0.19 -0.73,0.61 -0.78,1.27 -0.05,0.66 0.01,1.48 0.19,2.45 0.18,0.97 0.39,2.04 0.62,3.21 0.23,1.17 0.38,2.36 0.45,3.58 0.07,1.22 -0.02,2.4 -0.25,3.54 -0.24,1.14 -0.73,2.18 -1.47,3.12 -0.74,0.94 -1.83,1.7 -3.27,2.28 -1.67,0.68 -3.4,0.82 -5.18,0.43 -1.78,-0.39 -3.48,-1.35 -5.08,-2.89 -1.63,-1.53 -3.01,-3.73 -4.16,-6.57 z"
   id="path9872" />
					<path
   class="st3"
   d="m 240.28,700.17 -4.73,-8.77 26.01,-14.03 4.73,8.77 z m 30.38,-5.93 4.73,8.77 -26.01,14.03 -4.73,-8.77 z m -16.1,9.46 -5.01,-9.29 7.21,-3.89 5.01,9.29 z"
   id="path9874" />
					<path
   class="st3"
   d="m 269.18,745.68 -6.16,-7.83 23.24,-18.26 6.16,7.83 z m 28.93,-11.02 6.16,7.83 -23.24,18.26 -6.16,-7.83 z m -14.26,12.06 -6.52,-8.3 6.44,-5.06 6.52,8.3 z"
   id="path9876" />
					<path
   class="st3"
   d="m 296.64,778.04 c -3.21,-3.2 -4.84,-6.56 -4.9,-10.09 -0.06,-3.52 1.47,-6.85 4.59,-9.97 l 11.49,-11.5 7.05,7.04 -11.28,11.29 c -1.59,1.59 -2.43,3.01 -2.52,4.26 -0.09,1.24 0.35,2.35 1.33,3.33 1,1 2.11,1.44 3.34,1.34 1.23,-0.1 2.65,-0.95 4.24,-2.54 l 11.28,-11.29 6.93,6.92 -11.49,11.5 c -3.12,3.12 -6.45,4.66 -9.97,4.6 -3.52,-0.06 -6.89,-1.68 -10.09,-4.89 z"
   id="path9878" />
					<path
   class="st3"
   d="m 313.9,793.57 18.31,-23.2 12.39,9.79 c 3.2,2.53 5.12,4.96 5.74,7.3 0.63,2.34 0.24,4.4 -1.15,6.16 -0.92,1.17 -2.08,1.96 -3.45,2.36 -1.38,0.4 -2.89,0.38 -4.55,-0.07 -1.66,-0.45 -3.39,-1.39 -5.2,-2.82 l 2.08,-1.27 c 1.81,1.43 3.17,2.92 4.09,4.46 0.92,1.54 1.35,3.08 1.31,4.61 -0.04,1.53 -0.59,2.97 -1.66,4.31 -1.59,2.01 -3.66,2.92 -6.22,2.73 -2.56,-0.19 -5.44,-1.55 -8.64,-4.08 z m 12.01,0.6 4.71,3.71 c 0.86,0.68 1.63,1.04 2.3,1.07 0.67,0.03 1.25,-0.25 1.72,-0.85 0.47,-0.6 0.61,-1.22 0.43,-1.87 -0.19,-0.65 -0.71,-1.31 -1.57,-1.99 l -5.24,-4.13 4.08,-5.17 4.17,3.3 c 0.88,0.7 1.65,1.06 2.29,1.08 0.64,0.02 1.18,-0.24 1.62,-0.79 0.45,-0.57 0.59,-1.17 0.41,-1.78 -0.18,-0.61 -0.71,-1.26 -1.6,-1.96 l -3.65,-2.88 z"
   id="path9880" />
				</g>
			</g>
		</g>
	</g>
	
	<g
   id="g13898-2-0-7-4-8-5"
   transform="matrix(5.9644926,0,0,5.7365587,-197.95584,219.07361)"
   style="stroke-width:0.646139"><g
     id="g7742-4-2-9-4-7-4"
     transform="matrix(0.15886814,0,0,0.15886814,108.54861,67.025353)"
     style="vector-effect:non-scaling-stroke;fill:#ffffff;fill-opacity:1;stroke:#ffffff;stroke-width:1.07609;stroke-dasharray:none;stroke-opacity:1;-inkscape-stroke:hairline"><g
       id="SVG 1-4-5-7-0-5-6"
       clip-path="url(#clip0_597_1345-1-9-0-8-7-2-2)"
       style="vector-effect:non-scaling-stroke;fill:#ffffff;fill-opacity:1;stroke:#ffffff;stroke-width:1.07609;stroke-dasharray:none;stroke-opacity:1;-inkscape-stroke:hairline"><path
         id="Vector-9-0-3-5-3-4"
         d="M 8.61476,19.2877 9.64916,17.0161 13.7456,29.1921 22.738,3.61734 H 3.73476 L 3.74036,44.5953 H 44.8112 V 27.5265 h -6.3976 v 7.1856 l -3.4628,-0.016 V 17.8649 l 3.4628,0.016 v 6.3988 h 6.368 v -6.3988 l 1.7452,-1.7384 1.7468,1.832 L 48.272,48.1357 0.28076,48.0553 0.27356,0.135742 27.8916,0.169342 15.3864,34.7229 12.0444,34.6537 6.27996,18.1413 Z"
         fill="#7c4bac"
         style="vector-effect:non-scaling-stroke;fill:#ffffff;fill-opacity:1;stroke:#ffffff;stroke-width:1.07609;stroke-dasharray:none;stroke-opacity:1;-inkscape-stroke:hairline" /><path
         id="Vector_2-9-2-5-9-2-7"
         d="m 22.954,31.5286 c 0.9484,0.5444 2.3344,0.998 3.7932,0.998 2.1636,0 3.428,-1.066 3.428,-2.6084 0,-1.4288 -0.8752,-2.2452 -3.0876,-3.04 -2.6748,-0.8836 -4.3296,-2.1764 -4.3296,-4.3308 0,-2.3816 2.1152,-4.1504 5.3004,-4.1504 1.6776,0 2.8932,0.3628 3.6228,0.7484 l -0.582,1.6104 c -0.9661,-0.4826 -2.0321,-0.7313 -3.112,-0.726 -2.2372,0 -3.088,1.2476 -3.088,2.2908 0,1.4288 0.9968,2.132 3.258,2.9484 2.7716,0.998 4.182,2.2452 4.182,4.4908 0,2.36 -1.872,4.4 -5.738,4.4 -1.5804,0 -3.3068,-0.4312 -4.182,-0.9756 z"
         fill="#7c4bac"
         stroke="#7c4bac"
         stroke-width="3.33085"
         stroke-miterlimit="10"
         style="fill:#ffffff;fill-opacity:1;stroke:#ffffff;stroke-width:1.8912;stroke-dasharray:none;stroke-opacity:1" /></g></g></g><g
   id="g40837"
   style="stroke-width:1.13611"
   transform="matrix(0.89702464,0,0,0.86369002,39.978734,60.473393)"><text
     xml:space="preserve"
     style="font-style:normal;font-variant:normal;font-weight:bold;font-stretch:normal;font-size:14.2337px;line-height:1.25;font-family:sans-serif;-inkscape-font-specification:'sans-serif, Bold';font-variant-ligatures:normal;font-variant-caps:normal;font-variant-numeric:normal;font-variant-east-asian:normal;text-align:center;text-anchor:middle;fill:#ffffff;fill-opacity:1;stroke:none;stroke-width:1.1361;stroke-opacity:1"
     x="658.28326"
     y="524.17426"
     id="text59452-8"
     transform="scale(0.89347878,1.1192208)"><tspan
       sodipodi:role="line"
       x="658.28326"
       y="524.17426"
       style="font-style:normal;font-variant:normal;font-weight:bold;font-stretch:normal;font-size:14.2337px;font-family:sans-serif;-inkscape-font-specification:'sans-serif, Bold';font-variant-ligatures:normal;font-variant-caps:normal;font-variant-numeric:normal;font-variant-east-asian:normal;text-align:center;text-anchor:middle;fill:#ffffff;fill-opacity:1;stroke:none;stroke-width:1.1361;stroke-opacity:1"
       id="tspan18067"> MODULAR BUILDING BLOCK</tspan></text></g><path
   id="rect12924-7-2-1-1-4-1-7"
   style="fill:#7c4bac;fill-rule:evenodd;stroke:#2c3d50;stroke-width:5;stroke-linejoin:round;stroke-dasharray:none;stroke-dashoffset:0;stroke-opacity:1"
   d="m 531.17896,410.96449 c -22.17275,0.0252 -40.37966,19.06559 -41.25534,43.15982 h -55.25921 c -7.99392,0 -14.42875,6.42778 -14.42875,14.41274 v 56.18804 c 0.10917,0 0.21839,-0.0252 0.32764,-0.0252 20.42643,-8.7e-4 36.98557,18.01679 36.98471,40.24259 -6.7e-4,22.22451 -16.55956,40.24005 -36.98471,40.23905 -0.10924,0 -0.21846,-0.0252 -0.32764,-0.0252 l 0.7447,70.26277 73.23193,0.34178 c -0.005,-0.10838 -0.0101,-0.21929 -0.0146,-0.32743 -6.8e-4,-22.22426 16.55608,-40.24157 36.98108,-40.24257 20.42644,-8.6e-4 36.98559,18.0168 36.98473,40.24257 -0.005,0.1084 -0.0101,0.2193 -0.0152,0.32743 h 59.54785 c 7.99392,0 14.42877,-6.4278 14.42877,-14.41299 V 609.793 c 22.09393,-1.03845 39.51903,-20.81104 39.5346,-44.86092 -8.9e-4,-24.06096 -17.43011,-43.85067 -39.53414,-44.88989 v -51.52285 c 0,-7.98493 -6.43484,-14.41272 -14.42875,-14.41272 h -55.234 c -0.87612,-24.10658 -19.10024,-43.15856 -41.28419,-43.15982 z"
   sodipodi:nodetypes="ccssccscccccsccsscccssccc" /><g
   id="g13898-2-0-7-4-8-5-6"
   transform="matrix(6.649196,0,0,6.6419185,-287.70855,167.89484)"
   style="stroke-width:0.568731"><g
     id="g7742-4-2-9-4-7-4-2"
     transform="matrix(0.15886814,0,0,0.15886814,108.54861,67.025353)"
     style="vector-effect:non-scaling-stroke;fill:#ffffff;fill-opacity:1;stroke:#ffffff;stroke-width:0.947177;stroke-dasharray:none;stroke-opacity:1;-inkscape-stroke:hairline"><g
       id="SVG 1-4-5-7-0-5-6-4"
       clip-path="url(#clip0_597_1345-1-9-0-8-7-2-2-6)"
       style="vector-effect:non-scaling-stroke;fill:#ffffff;fill-opacity:1;stroke:#ffffff;stroke-width:0.947177;stroke-dasharray:none;stroke-opacity:1;-inkscape-stroke:hairline"><path
         id="Vector-9-0-3-5-3-4-3"
         d="M 8.61476,19.2877 9.64916,17.0161 13.7456,29.1921 22.738,3.61734 H 3.73476 L 3.74036,44.5953 H 44.8112 V 27.5265 h -6.3976 v 7.1856 l -3.4628,-0.016 V 17.8649 l 3.4628,0.016 v 6.3988 h 6.368 v -6.3988 l 1.7452,-1.7384 1.7468,1.832 L 48.272,48.1357 0.28076,48.0553 0.27356,0.135742 27.8916,0.169342 15.3864,34.7229 12.0444,34.6537 6.27996,18.1413 Z"
         fill="#7c4bac"
         style="vector-effect:non-scaling-stroke;fill:#ffffff;fill-opacity:1;stroke:#ffffff;stroke-width:0.947177;stroke-dasharray:none;stroke-opacity:1;-inkscape-stroke:hairline" /><path
         id="Vector_2-9-2-5-9-2-7-1"
         d="m 22.954,31.5286 c 0.9484,0.5444 2.3344,0.998 3.7932,0.998 2.1636,0 3.428,-1.066 3.428,-2.6084 0,-1.4288 -0.8752,-2.2452 -3.0876,-3.04 -2.6748,-0.8836 -4.3296,-2.1764 -4.3296,-4.3308 0,-2.3816 2.1152,-4.1504 5.3004,-4.1504 1.6776,0 2.8932,0.3628 3.6228,0.7484 l -0.582,1.6104 c -0.9661,-0.4826 -2.0321,-0.7313 -3.112,-0.726 -2.2372,0 -3.088,1.2476 -3.088,2.2908 0,1.4288 0.9968,2.132 3.258,2.9484 2.7716,0.998 4.182,2.2452 4.182,4.4908 0,2.36 -1.872,4.4 -5.738,4.4 -1.5804,0 -3.3068,-0.4312 -4.182,-0.9756 z"
         fill="#7c4bac"
         stroke="#7c4bac"
         stroke-width="3.33085"
         stroke-miterlimit="10"
         style="fill:#ffffff;fill-opacity:1;stroke:#ffffff;stroke-width:1.66464;stroke-dasharray:none;stroke-opacity:1" /></g></g></g><ellipse
   style="vector-effect:non-scaling-stroke;fill:#03c55c;fill-opacity:1;fill-rule:evenodd;stroke:none;stroke-width:0.999995;stroke-linejoin:round;stroke-opacity:1;-inkscape-stroke:hairline"
   id="path19248-5"
   cx="417.22632"
   cy="565.10138"
   rx="32.19035"
   ry="32.159081" /><ellipse
   style="vector-effect:non-scaling-stroke;fill:#03c55c;fill-opacity:1;fill-rule:evenodd;stroke:none;stroke-width:0.999995;stroke-linejoin:round;stroke-opacity:1;-inkscape-stroke:hairline"
   id="path19248-5-9"
   cx="526.91162"
   cy="871.57654"
   rx="22.0867"
   ry="22.065245" /><rect
   style="fill:none;fill-opacity:1;fill-rule:evenodd;stroke:none;stroke-width:5;stroke-linejoin:round;stroke-dasharray:none"
   id="rect41021"
   width="225.51855"
   height="222.48468"
   x="419.41998"
   y="451.93246" /><text
   xml:space="preserve"
   style="font-style:normal;font-variant:normal;font-weight:bold;font-stretch:normal;font-size:29.3334px;line-height:1.25;font-family:sans-serif;-inkscape-font-specification:'sans-serif, Bold';font-variant-ligatures:normal;font-variant-caps:normal;font-variant-numeric:normal;font-variant-east-asian:normal;text-align:center;text-anchor:middle;fill:#ffffff;fill-opacity:1;stroke:none;stroke-width:0.999995;stroke-opacity:1"
   x="610.00281"
   y="514.87219"
   id="text59452-8-7"
   transform="scale(0.89347876,1.1192208)"><tspan
     sodipodi:role="line"
     x="610.00281"
     y="514.87219"
     style="font-style:normal;font-variant:normal;font-weight:bold;font-stretch:normal;font-size:29.3334px;font-family:sans-serif;-inkscape-font-specification:'sans-serif, Bold';font-variant-ligatures:normal;font-variant-caps:normal;font-variant-numeric:normal;font-variant-east-asian:normal;text-align:center;text-anchor:middle;fill:#ffffff;fill-opacity:1;stroke:none;stroke-width:0.999995;stroke-opacity:1"
     id="tspan40967">MODULAR</tspan></text><g
   id="g9350"
   transform="translate(492.6801,328.4146)" />
	
	
	
	
	<g
   id="g10004">
		<g
   id="g10002">
			<path
   class="st4"
   d="m 151.47,647.42 20.65,-5.98 2.88,9.94 c 0.56,1.93 0.73,3.69 0.5,5.27 -0.22,1.59 -0.81,2.94 -1.76,4.04 -0.95,1.11 -2.22,1.89 -3.81,2.35 -1.59,0.46 -3.08,0.48 -4.46,0.04 -1.38,-0.43 -2.6,-1.26 -3.64,-2.48 -1.05,-1.22 -1.85,-2.8 -2.41,-4.72 l -1.76,-6.08 3.88,2.24 -8.05,2.33 z m 9.3,4.86 2.26,-4.01 1.63,5.63 c 0.28,0.96 0.7,1.61 1.27,1.95 0.57,0.34 1.22,0.4 1.97,0.18 0.75,-0.22 1.27,-0.62 1.57,-1.21 0.3,-0.59 0.31,-1.36 0.03,-2.33 l -1.63,-5.63 4.05,2.18 z"
   id="path9986" />
			<path
   class="st4"
   d="m 158.57,671.16 20.28,-7.15 2.41,6.84 -14.98,5.28 3.23,9.15 -5.3,1.87 z"
   id="path9988" />
			<path
   class="st4"
   d="m 164.94,689.36 23.46,0.27 2.78,6.56 -16.13,17.04 -2.92,-6.9 13.92,-13.44 1.1,2.6 -19.34,0.65 z m 5.63,3.68 5.53,-0.34 3.86,9.11 -4.09,3.73 z"
   id="path9990" />
			<path
   class="st4"
   d="m 178.25,719.55 14.23,-7.05 -2.79,-5.64 5.04,-2.49 8.81,17.78 -5.04,2.49 -2.8,-5.64 -14.23,7.05 z"
   id="path9992" />
			<path
   class="st4"
   d="m 189.82,741.63 -3.57,-6.31 18.71,-10.59 8.61,15.21 -4.76,2.69 -5.04,-8.9 z m 10.5,-6.51 4.66,8.23 -4.76,2.69 -4.66,-8.23 z"
   id="path9994" />
			<path
   class="st4"
   d="m 202.92,764.16 c -0.96,-1.48 -1.62,-2.99 -1.96,-4.53 -0.35,-1.55 -0.39,-3.05 -0.14,-4.51 0.25,-1.46 0.79,-2.82 1.61,-4.08 0.82,-1.26 1.91,-2.33 3.26,-3.21 1.37,-0.89 2.79,-1.46 4.26,-1.7 1.47,-0.24 2.93,-0.18 4.37,0.18 1.44,0.36 2.8,1 4.07,1.95 1.27,0.95 2.39,2.14 3.34,3.6 0.96,1.48 1.61,2.98 1.96,4.52 0.34,1.54 0.38,3.04 0.13,4.5 -0.26,1.46 -0.79,2.82 -1.6,4.07 -0.81,1.25 -1.9,2.32 -3.27,3.22 -1.36,0.88 -2.77,1.45 -4.25,1.69 -1.48,0.24 -2.94,0.19 -4.38,-0.17 -1.44,-0.36 -2.8,-1 -4.07,-1.93 -1.27,-0.94 -2.38,-2.14 -3.33,-3.6 z m 4.9,-3.23 c 0.37,0.57 0.82,1.03 1.34,1.38 0.53,0.35 1.1,0.59 1.73,0.71 0.63,0.12 1.28,0.1 1.98,-0.06 0.69,-0.16 1.39,-0.47 2.09,-0.92 0.7,-0.46 1.27,-0.97 1.69,-1.54 0.42,-0.57 0.71,-1.17 0.85,-1.79 0.15,-0.62 0.16,-1.24 0.05,-1.87 -0.11,-0.62 -0.35,-1.22 -0.72,-1.78 -0.37,-0.57 -0.82,-1.03 -1.34,-1.38 -0.53,-0.35 -1.1,-0.59 -1.73,-0.71 -0.63,-0.12 -1.29,-0.1 -1.98,0.06 -0.69,0.16 -1.39,0.47 -2.09,0.92 -0.7,0.46 -1.27,0.97 -1.69,1.54 -0.42,0.57 -0.71,1.16 -0.85,1.79 -0.15,0.62 -0.16,1.24 -0.05,1.87 0.11,0.63 0.35,1.22 0.72,1.78 z"
   id="path9996" />
			<path
   class="st4"
   d="m 212.91,778.13 17.19,-12.92 6.22,8.27 c 1.21,1.6 1.99,3.19 2.34,4.75 0.36,1.56 0.29,3.03 -0.21,4.4 -0.49,1.37 -1.4,2.55 -2.73,3.55 -1.33,1 -2.71,1.54 -4.14,1.62 -1.44,0.08 -2.85,-0.27 -4.24,-1.06 -1.39,-0.79 -2.68,-1.99 -3.89,-3.59 l -3.8,-5.06 4.32,0.79 -6.7,5.04 z m 7.73,10.28 3.09,-8.93 4.61,6.14 -3.05,8.98 z m 2.69,-9.05 0.69,-4.55 3.53,4.69 c 0.6,0.8 1.23,1.26 1.88,1.37 0.65,0.11 1.28,-0.06 1.91,-0.53 0.62,-0.47 0.97,-1.03 1.04,-1.68 0.07,-0.66 -0.2,-1.38 -0.8,-2.19 l -3.53,-4.69 4.57,0.6 z"
   id="path9998" />
			<path
   class="st4"
   d="m 228.22,798.34 16.23,-14.1 3.91,4.5 -4.96,15.7 -2.06,-2.36 16.08,-2.9 3.91,4.5 -16.19,14.15 -4.33,-4.99 8.68,-7.62 0.69,0.79 -11,1.99 -2.1,-2.41 3.35,-10.8 0.85,0.97 -8.72,7.57 z"
   id="path10000" />
		</g>
	</g>
	<g
   id="g10024">
		<g
   id="g10022">
			<path
   class="st4"
   d="m 441.2,180.09 4.24,-23.08 6.94,-1.63 14.06,18.79 -7.3,1.71 -10.88,-16 2.75,-0.65 -2.63,19.17 z m 4.59,-4.92 0.6,-5.5 9.63,-2.26 2.99,4.66 z"
   id="path10006" />
			<path
   class="st4"
   d="m 468.8,173.81 -3.52,-21.21 10.21,-1.7 c 1.98,-0.33 3.75,-0.29 5.3,0.12 1.55,0.41 2.82,1.15 3.81,2.22 0.99,1.07 1.62,2.43 1.89,4.06 0.27,1.64 0.11,3.12 -0.48,4.44 -0.59,1.32 -1.55,2.43 -2.89,3.33 -1.33,0.9 -2.99,1.51 -4.97,1.84 l -6.24,1.04 2.67,-3.59 1.38,8.27 z m 5.91,-8.68 -3.72,-2.71 5.79,-0.96 c 0.99,-0.16 1.69,-0.51 2.09,-1.03 0.4,-0.52 0.54,-1.17 0.41,-1.94 -0.13,-0.77 -0.47,-1.33 -1.01,-1.7 -0.55,-0.37 -1.32,-0.47 -2.31,-0.3 l -5.79,0.96 2.64,-3.77 z"
   id="path10008" />
			<path
   class="st4"
   d="m 492.23,170.06 -2.19,-21.39 10.3,-1.05 c 2,-0.2 3.76,-0.06 5.28,0.45 1.52,0.5 2.74,1.32 3.66,2.45 0.92,1.13 1.46,2.52 1.63,4.17 0.17,1.65 -0.08,3.12 -0.75,4.4 -0.67,1.28 -1.7,2.33 -3.09,3.14 -1.39,0.81 -3.08,1.32 -5.08,1.52 l -6.29,0.64 2.89,-3.42 0.85,8.34 z m 6.44,-8.29 -3.54,-2.94 5.84,-0.6 c 1,-0.1 1.71,-0.4 2.15,-0.9 0.43,-0.5 0.61,-1.13 0.53,-1.91 -0.08,-0.77 -0.38,-1.36 -0.91,-1.76 -0.52,-0.4 -1.29,-0.55 -2.29,-0.45 l -5.84,0.6 2.88,-3.6 z"
   id="path10010" />
			<path
   class="st4"
   d="M 515.84,167.78 515,146.3 l 10.34,-0.41 c 2,-0.08 3.75,0.18 5.24,0.78 1.49,0.6 2.66,1.49 3.5,2.68 0.85,1.19 1.3,2.61 1.37,4.27 0.07,1.66 -0.28,3.1 -1.03,4.33 -0.75,1.23 -1.85,2.19 -3.28,2.88 -1.44,0.69 -3.16,1.08 -5.17,1.16 l -6.32,0.25 3.11,-3.1 0.33,8.38 z m 6.94,-7.87 -3.35,-3.16 5.86,-0.23 c 1,-0.04 1.74,-0.29 2.2,-0.76 0.46,-0.47 0.68,-1.09 0.65,-1.87 -0.03,-0.78 -0.3,-1.38 -0.79,-1.81 -0.5,-0.43 -1.25,-0.63 -2.25,-0.59 l -5.86,0.23 3.09,-3.41 z m 5.91,7.36 -5.58,-7.62 7.67,-0.3 5.65,7.62 z"
   id="path10012" />
			<path
   class="st4"
   d="m 551.19,167.75 c -1.76,-0.05 -3.37,-0.37 -4.84,-0.97 -1.47,-0.6 -2.73,-1.42 -3.79,-2.46 -1.06,-1.04 -1.87,-2.26 -2.43,-3.65 -0.57,-1.39 -0.82,-2.89 -0.78,-4.51 0.05,-1.64 0.39,-3.13 1.04,-4.47 0.64,-1.34 1.52,-2.51 2.63,-3.49 1.11,-0.98 2.42,-1.73 3.92,-2.24 1.5,-0.51 3.12,-0.74 4.86,-0.69 1.76,0.05 3.37,0.37 4.83,0.97 1.46,0.6 2.71,1.42 3.77,2.46 1.06,1.04 1.87,2.26 2.43,3.63 0.56,1.38 0.82,2.89 0.78,4.52 -0.05,1.62 -0.39,3.1 -1.04,4.46 -0.64,1.35 -1.52,2.52 -2.64,3.5 -1.11,0.98 -2.42,1.73 -3.91,2.24 -1.47,0.52 -3.09,0.75 -4.83,0.7 z m 0.14,-5.86 c 0.68,0.02 1.31,-0.09 1.9,-0.31 0.59,-0.23 1.11,-0.57 1.57,-1.02 0.45,-0.45 0.81,-1 1.08,-1.66 0.26,-0.66 0.41,-1.41 0.43,-2.25 0.02,-0.84 -0.08,-1.6 -0.3,-2.27 -0.23,-0.67 -0.55,-1.24 -0.98,-1.72 -0.43,-0.47 -0.93,-0.84 -1.5,-1.1 -0.58,-0.26 -1.2,-0.4 -1.88,-0.42 -0.68,-0.02 -1.31,0.09 -1.9,0.31 -0.59,0.23 -1.11,0.57 -1.57,1.02 -0.45,0.45 -0.81,1 -1.08,1.66 -0.27,0.66 -0.41,1.41 -0.43,2.25 -0.02,0.84 0.08,1.6 0.3,2.27 0.23,0.67 0.55,1.25 0.98,1.72 0.43,0.47 0.93,0.84 1.5,1.1 0.57,0.26 1.21,0.4 1.88,0.42 z"
   id="path10014" />
			<path
   class="st4"
   d="m 564.46,167.65 11.47,-20.47 7.09,0.7 7.24,22.32 -7.46,-0.74 -5.13,-18.66 2.81,0.28 -8.69,17.29 z m 5.94,-3.17 2.35,-5.02 9.84,0.97 1.32,5.38 z"
   id="path10016" />
			<path
   class="st4"
   d="m 603.18,172.89 c -1.7,-0.28 -3.22,-0.81 -4.58,-1.58 -1.36,-0.77 -2.48,-1.75 -3.38,-2.91 -0.9,-1.17 -1.52,-2.47 -1.89,-3.92 -0.36,-1.45 -0.41,-2.99 -0.13,-4.63 0.27,-1.64 0.81,-3.08 1.62,-4.34 0.81,-1.26 1.83,-2.29 3.05,-3.11 1.22,-0.81 2.6,-1.37 4.14,-1.66 1.53,-0.3 3.15,-0.3 4.85,-0.02 2.08,0.35 3.86,1.01 5.35,2.01 1.48,0.99 2.64,2.26 3.46,3.81 l -5.18,3.28 c -0.5,-0.89 -1.09,-1.62 -1.77,-2.18 -0.69,-0.56 -1.5,-0.92 -2.45,-1.08 -0.75,-0.12 -1.44,-0.11 -2.09,0.03 -0.65,0.14 -1.23,0.41 -1.74,0.8 -0.51,0.39 -0.94,0.9 -1.29,1.51 -0.35,0.62 -0.59,1.33 -0.73,2.14 -0.13,0.81 -0.13,1.56 0,2.26 0.13,0.7 0.38,1.31 0.74,1.85 0.36,0.54 0.82,0.98 1.38,1.32 0.57,0.34 1.22,0.58 1.97,0.7 0.95,0.16 1.84,0.08 2.67,-0.23 0.83,-0.31 1.62,-0.8 2.38,-1.49 l 3.85,4.78 c -1.28,1.18 -2.78,2 -4.51,2.48 -1.73,0.46 -3.64,0.52 -5.72,0.18 z"
   id="path10018" />
			<path
   class="st4"
   d="m 623.05,176.3 -7.06,-1.66 4.92,-20.93 7.06,1.66 z m 8.81,-6.06 -7.48,-1.76 1.36,-5.8 7.47,1.76 z m 2.63,-13.33 7.06,1.66 -4.92,20.93 -7.05,-1.66 z"
   id="path10020" />
		</g>
	</g>
	<g
   id="g10036">
		<g
   id="g10034">
			<path
   class="st4"
   d="m 864.17,782.11 -12.9,-9.25 -3.67,5.12 -4.57,-3.28 11.56,-16.12 4.57,3.28 -3.67,5.12 12.91,9.25 z"
   id="path10026" />
			<path
   class="st4"
   d="m 880.7,758.54 c -0.93,1.49 -2.03,2.72 -3.29,3.69 -1.26,0.96 -2.6,1.64 -4.04,2.02 -1.43,0.38 -2.89,0.46 -4.38,0.25 -1.48,-0.21 -2.91,-0.75 -4.28,-1.61 -1.39,-0.87 -2.5,-1.92 -3.33,-3.16 -0.83,-1.24 -1.39,-2.58 -1.68,-4.04 -0.28,-1.46 -0.27,-2.96 0.05,-4.51 0.32,-1.55 0.94,-3.07 1.87,-4.54 0.93,-1.49 2.03,-2.72 3.28,-3.67 1.25,-0.96 2.59,-1.63 4.03,-2.01 1.43,-0.38 2.89,-0.47 4.36,-0.26 1.48,0.21 2.91,0.75 4.29,1.62 1.37,0.86 2.48,1.91 3.32,3.15 0.84,1.24 1.41,2.59 1.69,4.05 0.28,1.46 0.27,2.96 -0.04,4.5 -0.31,1.54 -0.92,3.05 -1.85,4.52 z m -4.99,-3.08 c 0.36,-0.57 0.59,-1.17 0.69,-1.8 0.1,-0.63 0.07,-1.25 -0.08,-1.86 -0.16,-0.62 -0.45,-1.21 -0.89,-1.77 -0.43,-0.56 -1.01,-1.06 -1.72,-1.51 -0.71,-0.45 -1.41,-0.74 -2.11,-0.89 -0.69,-0.14 -1.35,-0.15 -1.98,-0.02 -0.62,0.13 -1.2,0.37 -1.71,0.74 -0.52,0.36 -0.96,0.83 -1.31,1.41 -0.36,0.57 -0.59,1.17 -0.69,1.8 -0.1,0.63 -0.07,1.25 0.08,1.86 0.16,0.62 0.45,1.21 0.89,1.77 0.43,0.56 1.01,1.07 1.72,1.51 0.71,0.45 1.42,0.74 2.11,0.89 0.69,0.15 1.35,0.15 1.98,0.02 0.62,-0.13 1.2,-0.38 1.71,-0.74 0.52,-0.37 0.95,-0.84 1.31,-1.41 z"
   id="path10028" />
			<path
   class="st4"
   d="m 894.97,733.84 c -0.83,1.56 -1.83,2.86 -3.02,3.91 -1.19,1.05 -2.48,1.82 -3.88,2.3 -1.4,0.48 -2.85,0.67 -4.35,0.56 -1.5,-0.11 -2.96,-0.54 -4.39,-1.3 -1.45,-0.77 -2.63,-1.74 -3.55,-2.91 -0.92,-1.17 -1.57,-2.47 -1.96,-3.91 -0.38,-1.43 -0.47,-2.94 -0.27,-4.51 0.21,-1.57 0.72,-3.12 1.54,-4.66 0.83,-1.56 1.83,-2.86 3.01,-3.9 1.18,-1.04 2.47,-1.81 3.88,-2.29 1.4,-0.48 2.85,-0.67 4.33,-0.57 1.49,0.11 2.95,0.54 4.4,1.31 1.43,0.76 2.61,1.73 3.53,2.9 0.93,1.18 1.58,2.48 1.97,3.92 0.38,1.43 0.48,2.93 0.27,4.49 -0.18,1.57 -0.69,3.12 -1.51,4.66 z m -5.19,-2.72 c 0.32,-0.6 0.5,-1.21 0.56,-1.84 0.06,-0.63 -0.01,-1.25 -0.22,-1.85 -0.2,-0.61 -0.54,-1.17 -1.01,-1.7 -0.47,-0.53 -1.08,-0.99 -1.82,-1.38 -0.74,-0.39 -1.46,-0.64 -2.17,-0.73 -0.7,-0.1 -1.36,-0.06 -1.97,0.12 -0.61,0.17 -1.17,0.46 -1.66,0.86 -0.49,0.4 -0.89,0.9 -1.21,1.49 -0.32,0.6 -0.5,1.21 -0.56,1.84 -0.06,0.63 0.01,1.25 0.22,1.85 0.2,0.6 0.54,1.17 1.01,1.7 0.47,0.53 1.08,0.99 1.82,1.38 0.74,0.39 1.46,0.64 2.17,0.73 0.7,0.1 1.36,0.06 1.97,-0.12 0.61,-0.18 1.17,-0.46 1.66,-0.86 0.48,-0.4 0.89,-0.9 1.21,-1.49 z"
   id="path10030" />
			<path
   class="st4"
   d="m 902.3,718.37 -19.57,-8.9 3,-6.6 14.46,6.57 4.02,-8.84 5.12,2.33 z"
   id="path10032" />
		</g>
	</g>
	
	
	
	
</g>
</svg>
