<?xml version="1.0" encoding="UTF-8" standalone="no"?>
<!-- Created with Inkscape (http://www.inkscape.org/) -->

<svg
   xmlns:dc="http://purl.org/dc/elements/1.1/"
   xmlns:cc="http://creativecommons.org/ns#"
   xmlns:rdf="http://www.w3.org/1999/02/22-rdf-syntax-ns#"
   xmlns:svg="http://www.w3.org/2000/svg"
   xmlns="http://www.w3.org/2000/svg"
   xmlns:sodipodi="http://sodipodi.sourceforge.net/DTD/sodipodi-0.dtd"
   xmlns:inkscape="http://www.inkscape.org/namespaces/inkscape"
   version="1.1"
   id="svg2"
   width="710"
   height="710"
   viewBox="0 0 710.00001 710.00001"
   sodipodi:docname="FHFreeLogo.svg"
   inkscape:version="0.92.4 (5da689c313, 2019-01-14)"
   inkscape:export-filename="C:\xampp\htdocs\filehamster.com\assets\images\FHFreeLogo.png"
   inkscape:export-xdpi="13.521127"
   inkscape:export-ydpi="13.521127">
  <metadata
     id="metadata8">
    <rdf:RDF>
      <cc:Work
         rdf:about="">
        <dc:format>image/svg+xml</dc:format>
        <dc:type
           rdf:resource="http://purl.org/dc/dcmitype/StillImage" />
        <dc:title></dc:title>
      </cc:Work>
    </rdf:RDF>
  </metadata>
  <defs
     id="defs6" />
  <sodipodi:namedview
     pagecolor="#ffffff"
     bordercolor="#666666"
     borderopacity="1"
     objecttolerance="10"
     gridtolerance="10"
     guidetolerance="10"
     inkscape:pageopacity="0"
     inkscape:pageshadow="2"
     inkscape:window-width="1920"
     inkscape:window-height="1017"
     id="namedview4"
     showgrid="false"
     inkscape:zoom="0.7071068"
     inkscape:cx="305.54165"
     inkscape:cy="189.77544"
     inkscape:window-x="-8"
     inkscape:window-y="-8"
     inkscape:window-maximized="1"
     inkscape:current-layer="svg2" />
  <circle
     style="fill:#fcffff;fill-opacity:1;stroke:#000000;stroke-width:11.25004864;stroke-opacity:1"
     id="path825"
     cx="354.50314"
     cy="355.03238"
     r="342.06439" />
  <path
     style="fill:#ffffff;fill-opacity:1;stroke:#000000;stroke-width:9.37129116;stroke-linecap:butt;stroke-linejoin:miter;stroke-miterlimit:4;stroke-dasharray:none;stroke-opacity:1"
     d="m 272.1731,311.29678 c -2.67077,-6.7e-4 -4.69901,0.135 -5.50052,0.16875 -33.48383,1.38286 -26.21932,1.65916 -38.11541,2.98093 -32.30519,3.58944 -52.47448,10.24474 -80.70591,24.36052 -3.95279,1.9764 -15.40377,8.99475 -18.56697,11.10357 -5.12286,3.41518 -23.4999,13.49128 -20.88144,25.85452 1.86953,8.82713 5.49522,20.72507 14.42145,25.18808 5.09462,2.54734 12.50422,-0.79313 17.23396,3.31797 9.48586,8.24584 20.67883,18.4124 34.47525,20.3834 2.36017,10.8302 4.4945,21.84186 9.44096,30.4981 -8.40374,3.11952 -15.66013,8.56264 -23.1959,13.58657 -8.40108,5.60072 -15.01801,10.65841 -24.19933,15.24899 -6.56982,3.2849 -22.52124,-1.34843 -27.18029,3.31067 -0.70954,0.70987 9.7442,15.91555 11.27202,15.91555 21.08688,0 27.93405,0.0225 46.89718,-6.2989 5.99558,-1.99846 6.66079,0 11.77006,0 2.50018,0 3.51806,0.36 6.10843,0.78413 l 2.27784,0.3735 c 0.29565,-0.37238 -0.44921,0.86963 -0.76174,1.49423 -1.41484,2.82961 -4.98569,4.15071 -6.96537,6.13038 -5.93809,5.93811 -8.13008,11.71636 -17.23396,14.75106 -6.65377,2.21795 -16.06077,2.92828 -22.03866,4.63626 -1.00745,3.82839 1.66989,6.81145 3.8086,8.9502 2.39321,2.39322 4.60753,4.77599 6.79691,6.96536 0.84319,0.84375 3.04535,0.89213 3.80861,1.65522 0.94759,0.94725 6.63709,-0.004 7.62454,-0.49838 6.5287,-3.26431 30.43757,-8.23042 33.3107,-11.10346 1.61187,-1.61191 13.42301,0.49275 15.41754,1.15718 10.01165,3.33721 36.47717,-1.11488 43.74775,-5.96196 16.29797,6.52199 31.11006,12.63076 48.39133,18.39124 33.0575,11.0192 79.95648,7.85231 122.57865,-8.85503 16.19115,-6.34683 34.76555,-19.39801 52.02417,-13.64507 2.26865,0.756 5.47303,2.11028 7.91752,3.33249 13.42194,6.71099 19.13567,-5.23217 33.92589,9.55815 4.1282,4.12821 0.8685,33.24682 3.31055,34.4679 5.12046,2.56018 16.64827,-10.67157 18.89659,-12.91989 5.42241,-5.42241 -1.79865,-33.7659 -3.977,-38.12282 -4.32947,-8.65882 -15.92793,-4.44759 -22.54409,-19.88524 13.22669,-5.75227 31.61905,-9.54376 41.48456,-19.40938 1.48276,-1.48264 6.32793,-0.40275 7.8882,-0.40275 1.87662,0 5.70557,-0.77063 5.70557,1.10588 0,0.49163 15.01297,27.66286 15.93761,28.12512 4.88634,2.44318 8.88866,-7.95108 11.01571,-10.07813 1.28543,-1.28543 3.8933,-6.74463 2.57806,-9.375 -1.74061,-3.48133 -13.47418,-30.11492 -14.06256,-30.7033 -1.21782,-1.21781 -2.08227,-3.01974 -3.28119,-4.21877 -4.95902,-4.95902 -26.44088,4.28965 -28.12512,-7.50007 11.05958,-29.4029 3.96834,-52.65877 -16.26724,-69.5217 -4.76439,-1.089 -3.32394,-4.63333 0.32963,-6.46 3.21639,-1.6082 13.52301,-9.26048 10.94247,-14.42144 -1.05075,-2.10128 -3.89634,-1.69921 -5.80086,-2.65141 -0.28238,-0.14175 -22.55927,8.73589 -32.98109,6.13038 -8.29836,-2.07462 -19.08037,-5.58093 -29.82431,-6.28417 -3.96306,-0.25987 -5.61738,-0.82238 -13.84285,0.82801 -11.45443,1.53473 -22.46334,5.41363 -34.22621,8.77447 -23.03001,6.57993 -48.69931,22.14111 -74.0775,17.06543 -4.21675,-0.84376 -13.58196,-0.14963 -16.74323,-3.31056 -3.6813,-3.68135 -8.80199,-3.82873 -12.59772,-7.62449 -12.38443,-12.38451 -23.60887,-25.07175 -40.26871,-29.83164 1.52986,-4.84203 11.88305,-11.5295 8.78178,-17.73211 -4.29228,-8.58446 -18.14264,-9.77561 -26.1549,-9.77786 z m -22.1046,34.08709 c 12.16148,0.315 28.05951,4.38774 31.69203,11.6528 6.10598,12.21204 -31.58058,24.40158 -40.93523,19.72426 -4.79386,-2.39694 2.72652,-11.2829 0.32962,-16.07677 -1.75066,-3.50124 -6.02681,-10.42823 -5.63967,-10.44432 l 0.14648,-1.23785 c 1.15589,-2.63959 7.10991,-3.80701 14.4068,-3.61812 z m -79.20445,8.86965 c 9.81947,-0.0787 16.48224,11.28863 11.14752,21.95807 -5.78516,11.57034 -26.30871,5.96219 -26.30871,-11.07421 0,-4.21742 4.56343,-7.5597 7.96878,-8.84772 2.49382,-1.38544 4.92638,-2.01814 7.19241,-2.03614 z"
     id="path820"
     inkscape:connector-curvature="0" />
  <flowRoot
     xml:space="preserve"
     id="flowRoot916"
     style="font-style:normal;font-weight:normal;font-size:13.33333302px;line-height:1.25;font-family:sans-serif;letter-spacing:0px;word-spacing:0px;fill:#000000;fill-opacity:1;stroke:none"
     transform="translate(0,638)"><flowRegion
       id="flowRegion918"><rect
         id="rect920"
         width="323.1478"
         height="14.849242"
         x="86.267029"
         y="52.201012" /></flowRegion><flowPara
       id="flowPara922">Always working so you don't have toaaaaa</flowPara></flowRoot></svg>
