<?xml version="1.0" encoding="UTF-8" standalone="yes"?>
<svg width="30.519mm" height="30.48mm" version="1.2" viewBox="0 0 30.519 30.48" baseProfile="tiny-ps" xmlns="http://www.w3.org/2000/svg">
  <title>Data Intuitive</title>
  <g transform="translate(-12.631 -.27544)" fill="#7c4bac" fill-rule="evenodd">
    <path class="fil0 str0" d="m23.141 22.164h-1.16v-5.91c0-0.53 0.22-1.6-0.4-1.6s-0.4 1.07-0.4 1.51c0 1.38 0.09 5.2-0.04 6h-1.07c-0.13-1.02-0.04-6.13-0.04-7.82 0-0.57 0.26-2.31-0.4-2.31-0.62-0.04-0.4 1.16-0.4 2.22 0 1.87 0.09 6.67-0.05 7.91-0.79 0-3.19-0.09-3.73 0.09-0.31 1.02 0.67 0.75 2.67 0.75h10.66c2.88 0 3.64-0.13 5.5-1.55 0.85-0.58 2.62-2.93 2.36-4.84l-0.05-0.45c-1.64-0.66 0.31 2.49-3.19 4.98-2.09 1.42-4.53 1.02-7.42 1.02-0.13-1.02 0-6.13 0-7.82 0-0.62 0.27-2.26-0.44-2.31-0.63-0.04-0.4 1.11-0.4 2.22 0 1.87 0.08 6.67-0.05 7.91h-1.11c-0.13-1.91 0.22-10.66-0.09-11.5-0.58-0.18-0.75 0-0.75 0.62z" stroke="#90c" stroke-width=".0762"/>
    <g stroke-width=".01">
      <path class="fil0" d="m17.281 3.1538c0.66 0.31 7.41 0.13 8.79 0.13 3.02 0 5.68-0.26 8.26 0.8 4.31 1.78 7.41 6 7.41 10.66 0 2.98-0.04 5.07-1.73 7.69-2 3.19-5.46 5.55-9.46 5.64h-5.59c-0.62 0-1.33-0.18-1.38 0.48 0.18 0.54 0.85 0.36 1.47 0.36 4.53 0 7.99 0.49 11.81-2 2.66-1.78 5.73-5.42 5.73-10.21 0-2.8 0.09-4.22-1.16-6.93-1.24-2.71-3.33-4.75-5.99-6.09-1.2-0.66-3.24-1.24-4.89-1.24h-12.79c-0.57 0-0.62 0.27-0.48 0.71z"/>
      <path class="fil0" d="m24.741 7.1038c0.53 0.23 4.53 0.09 5.55 0.09 1.77 0.09 3.15 0.67 4.3 1.51 2.36 1.73 3.42 4 3.2 8.26-0.18 3.2-2.48 5.73-4.84 6.62-2.71 1.07-6.62 0.31-7.99 0.58-0.49 0.09-0.45 0.66-0.05 0.8 0.18 0.04 1.16 0 1.42 0 4.36 0 6.44 0.35 9.33-2.09 2.58-2.18 3.15-4.97 2.98-8.48-0.23-3.33-2.4-5.86-4.49-6.97-2.58-1.34-4.4-1.03-7.5-1.03-0.8 0-2.4-0.31-1.91 0.71z"/>
      <path class="fil0" d="m39.881 16.794c0.93 0.35 0.75-0.58 0.71-1.96 0-5.51-4.75-10.43-10.21-10.43h-7.2c-0.75 0-0.75 0.79 0 0.84 4.04 0.22 8.39-0.71 11.81 1.33 5.78 3.51 4.53 9.28 4.89 10.22z"/>
      <path class="fil0" d="m28.781 26.874c0.71 0.22 2.84 0 3.64-0.18 1.95-0.45 3.95-1.6 5.19-2.93 0.23-0.22 1.96-1.96 1.38-2.49-0.44-0.35-0.84 0.49-1.02 0.71-2 2.67-4.62 4.13-8.08 4.13-0.71 0-1.42-0.09-1.11 0.76z"/>
      <path class="fil0" d="m14.651 26.164c-0.44 0.17-0.48 0.75 0.23 0.8h1.55l9.33-0.05c0.4-0.18 0.35-0.75-0.27-0.8-0.49-0.04-1.07 0-1.55 0-1.34 0-9.11-0.04-9.29 0.05z"/>
      <path class="fil0" d="m21.231 9.1038c0.8 0.18 8.79 0.18 9.23 0 0.32-0.97-0.4-0.75-1.77-0.75h-6.93c-0.62 0-0.71 0.18-0.53 0.75z"/>
      <path class="fil0" d="m14.611 6.3938c-0.35 0.18-0.35 0.63-0.04 0.8 0.17 0.05 0.93 0 1.15 0 1.11 0 6.84 0.09 7.06-0.04 0.36-0.18 0.22-0.58 0-0.71-0.31-0.18-8.13-0.05-8.17-0.05z"/>
      <path class="fil0" d="m13.411 8.3938c-0.53 0.18-0.58 0.8 0.27 0.8l5.59-0.04c0.4-0.18 0.36-0.8-0.4-0.8z"/>
      <path class="fil0" d="m22.871 24.914c0.49-1.06-1.02-0.75-1.86-0.75-0.54 0-2.62-0.14-2.89 0.09-0.36 0.22-0.22 0.71 0.31 0.71z"/>
      <path class="fil0" d="m19.141 5.2438c0.62 0 1.42 0.09 1.82-0.13 0.18-0.89-0.35-0.71-1.82-0.71-0.89 0-0.84 0.84 0 0.84z"/>
      <path class="fil0" d="m15.901 3.1538c0.26-0.84-0.31-0.71-1.51-0.71-0.89 0-0.8 0.76-0.22 0.84 0.48 0.05 1.37 0.05 1.73-0.13z"/>
    </g>
  </g>
</svg>