<?xml version="1.0" encoding="UTF-8"?><svg id="Layer_2" xmlns="http://www.w3.org/2000/svg" width="412.72mm" height="157.55mm" xmlns:xlink="http://www.w3.org/1999/xlink" viewBox="0 0 1169.91 446.6"><defs><style>.cls-1,.cls-2,.cls-3{fill:none;}.cls-4{fill:#7a58ae;}.cls-2{stroke:#7a58ae;stroke-miterlimit:10;stroke-width:3.39px;}.cls-3{clip-path:url(#clippath);}</style><clipPath id="clippath"><rect class="cls-1" width="1169.91" height="446.6"/></clipPath></defs><g class="cls-3"><path class="cls-4" d="m351.97,305.51h339.8c8.78,0,15.89-7.12,15.89-15.89s-7.12-15.91-15.89-15.91h-339.8c-8.79,0-15.91,7.12-15.91,15.91s7.12,15.89,15.91,15.89Z"/><path class="cls-4" d="m60.62,72.13h55.87c8.78,0,15.89-7.12,15.89-15.91s-7.12-15.89-15.89-15.89h-55.87c-8.79,0-15.91,7.12-15.91,15.89s7.12,15.91,15.91,15.91Z"/><path class="cls-4" d="m315.6,149.93c8.78,0,15.89-7.12,15.89-15.89s-7.12-15.91-15.89-15.91h-66.86c-8.79,0-15.91,7.12-15.91,15.91s7.12,15.89,15.91,15.89h66.86Z"/><path class="cls-4" d="m68.88,211.83c0,8.77,7.12,15.89,15.91,15.89h308.63c8.77,0,15.89-7.12,15.89-15.89s-7.12-15.91-15.89-15.91H84.78c-8.79,0-15.91,7.12-15.91,15.91Z"/><path class="cls-4" d="m33.15,305.51h222.76c8.78,0,15.89-7.12,15.89-15.89s-7.12-15.91-15.89-15.91H33.15c-8.79,0-15.91,7.12-15.91,15.91s7.12,15.89,15.91,15.89Z"/><path class="cls-2" d="m1181.07,531.22c0-266.09-224.08-490.89-489.3-490.89H196.68c-8.79,0-15.91,7.12-15.91,15.89s7.12,15.91,15.91,15.91h495.09c248,0,457.51,210.23,457.51,459.09"/><path class="cls-2" d="m1103.29,531.22c0-223.91-188.45-413.09-411.52-413.09h-280.1c-8.79,0-15.91,7.12-15.91,15.91s7.12,15.89,15.91,15.89h280.1c205.83,0,379.73,174.62,379.73,381.29"/><path class="cls-2" d="m1025.46,531.22c0-181.75-152.81-335.29-333.69-335.29h-202.34c-8.79,0-15.91,7.12-15.91,15.91s7.12,15.89,15.91,15.89h202.34c163.64,0,301.9,138.98,301.9,303.49"/></g></svg>