<?xml version="1.0" encoding="UTF-8" standalone="no"?>
<!-- Creator: CorelDRAW Home & Student X8 -->

<svg
   xml:space="preserve"
   width="29.580605mm"
   height="50.857262mm"
   version="1.1"
   style="clip-rule:evenodd;fill-rule:evenodd;image-rendering:optimizeQuality;shape-rendering:geometricPrecision;text-rendering:geometricPrecision"
   viewBox="0 0 2958.0605 5085.7262"
   id="svg694"
   sodipodi:docname="logo_7B4BAC.svg"
   inkscape:version="1.2.2 (b0a84865, 2022-12-01)"
   xmlns:inkscape="http://www.inkscape.org/namespaces/inkscape"
   xmlns:sodipodi="http://sodipodi.sourceforge.net/DTD/sodipodi-0.dtd"
   xmlns="http://www.w3.org/2000/svg"
   xmlns:svg="http://www.w3.org/2000/svg"><sodipodi:namedview
   id="namedview696"
   pagecolor="#ffffff"
   bordercolor="#666666"
   borderopacity="1.0"
   inkscape:showpageshadow="2"
   inkscape:pageopacity="0.0"
   inkscape:pagecheckerboard="0"
   inkscape:deskcolor="#d1d1d1"
   inkscape:document-units="mm"
   showgrid="false"
   inkscape:zoom="4.7574603"
   inkscape:cx="18.917657"
   inkscape:cy="123.59536"
   inkscape:window-width="1920"
   inkscape:window-height="1028"
   inkscape:window-x="0"
   inkscape:window-y="52"
   inkscape:window-maximized="0"
   inkscape:current-layer="Laag_x0020_1" />
 <defs
   id="defs628">
  <style
   type="text/css"
   id="style626">
   <![CDATA[
    .str0 {stroke:#9900CC;stroke-width:7.62}
    .fil0 {fill:#7C4BAC}
    .fil1 {fill:#FBFFFF}
   ]]>
  </style>
 </defs>
 <g
   id="Laag_x0020_1"
   inkscape:label="Laag 1"
   inkscape:groupmode="layer"
   transform="translate(-13371.082,-7952.2737)">
  <metadata
   id="CorelCorpID_0Corel-Layer" />
  <path
   class="fil0 str0"
   d="m 14384,9925 h -116 v -591 c 0,-53 22,-160 -40,-160 -62,0 -40,107 -40,151 0,138 9,520 -4,600 h -107 c -13,-102 -4,-613 -4,-782 0,-57 26,-231 -40,-231 -62,-4 -40,116 -40,222 0,187 9,667 -5,791 -79,0 -319,-9 -373,9 -31,102 67,75 267,75 h 1066 c 288,0 364,-13 550,-155 85,-58 262,-293 236,-484 l -5,-45 c -164,-66 31,249 -319,498 -209,142 -453,102 -742,102 -13,-102 0,-613 0,-782 0,-62 27,-226 -44,-231 -63,-4 -40,111 -40,222 0,187 8,667 -5,791 h -111 c -13,-191 22,-1066 -9,-1150 -58,-18 -75,0 -75,62 z"
   id="path631" />
  <path
   class="fil0"
   d="m 13798,8024 c 66,31 741,13 879,13 302,0 568,-26 826,80 431,178 741,600 741,1066 0,298 -4,507 -173,769 -200,319 -546,555 -946,564 h -559 c -62,0 -133,-18 -138,48 18,54 85,36 147,36 453,0 799,49 1181,-200 266,-178 573,-542 573,-1021 0,-280 9,-422 -116,-693 -124,-271 -333,-475 -599,-609 -120,-66 -324,-124 -489,-124 h -1279 c -57,0 -62,27 -48,71 z"
   id="path633" />
  <path
   class="fil0"
   d="m 14544,8419 c 53,23 453,9 555,9 177,9 315,67 430,151 236,173 342,400 320,826 -18,320 -248,573 -484,662 -271,107 -662,31 -799,58 -49,9 -45,66 -5,80 18,4 116,0 142,0 436,0 644,35 933,-209 258,-218 315,-497 298,-848 -23,-333 -240,-586 -449,-697 -258,-134 -440,-103 -750,-103 -80,0 -240,-31 -191,71 z"
   id="path635" />
  <path
   class="fil0"
   d="m 13442,12052 h 2811 c 85,0 85,-84 5,-84 h -2825 c -84,0 -84,84 9,84 z"
   id="path637" />
  <path
   class="fil0"
   d="m 13433,11053 c 360,0 2718,13 2874,-5 13,-35 13,-35 -5,-71 l -2869,-4 c -84,0 -75,80 0,80 z"
   id="path639" />
  <path
   class="fil0"
   d="m 13384,13038 h 2918 c 18,-36 18,-36 0,-71 l -2860,-9 c -71,0 -80,27 -58,80 z"
   id="path641" />
  <path
   class="fil0"
   d="m 16058,9388 c 93,35 75,-58 71,-196 0,-551 -475,-1043 -1021,-1043 h -720 c -75,0 -75,79 0,84 404,22 839,-71 1181,133 578,351 453,928 489,1022 z"
   id="path643" />
  <path
   class="fil0"
   d="m 13482,11248 c -44,23 -22,156 -22,205 0,80 0,159 0,235 0,102 -4,89 151,89 284,0 284,-289 218,-418 -23,-49 -67,-88 -129,-106 -36,-9 -191,-18 -218,-5 z"
   id="path645" />
  <path
   class="fil0"
   d="m 13895,11777 c 45,9 49,9 67,-31 13,-27 22,-58 26,-85 h 249 c 31,116 40,129 93,116 14,-54 -62,-218 -84,-276 -27,-71 -67,-199 -107,-262 h -48 c -31,45 -205,484 -196,538 z"
   id="path647" />
  <path
   class="fil0"
   d="m 14575,11777 c 40,9 49,9 66,-31 9,-27 18,-58 27,-85 h 249 c 26,116 40,125 88,116 14,-49 -159,-493 -191,-538 h -48 c -31,45 -205,484 -191,538 z"
   id="path649" />
  <path
   class="fil0"
   d="m 13615,12239 c -13,115 -4,355 -4,484 0,53 36,75 62,40 13,-23 5,-360 5,-400 8,9 0,0 13,13 l 155,227 c 214,297 178,244 178,-311 0,-22 -4,-36 -9,-53 l -53,-5 c -14,58 -5,333 -5,413 -31,-31 -53,-71 -80,-106 l -155,-227 c -22,-27 -58,-102 -107,-75 z"
   id="path651" />
  <path
   class="fil0"
   d="m 14948,10396 c 71,22 284,0 364,-18 195,-45 395,-160 519,-293 23,-22 196,-196 138,-249 -44,-35 -84,49 -102,71 -200,267 -462,413 -808,413 -71,0 -142,-9 -111,76 z"
   id="path653" />
  <path
   class="fil1"
   d="m 13531,11719 c 129,-4 258,4 258,-209 4,-213 -142,-208 -258,-208 z"
   id="path655" />
  <path
   class="fil0"
   d="m 13535,10325 c -44,17 -48,75 23,80 49,0 106,0 155,0 l 933,-5 c 40,-18 35,-75 -27,-80 -49,-4 -107,0 -155,0 -134,0 -911,-4 -929,5 z"
   id="path657" />
  <path
   class="fil0"
   d="m 14441,12292 c 0,257 -48,484 209,484 253,0 204,-249 204,-493 0,-49 -22,-53 -62,-44 -53,146 89,475 -142,479 -240,5 -102,-320 -151,-479 -49,-14 -58,-5 -58,53 z"
   id="path659" />
  <path
   class="fil0"
   d="m 14193,8619 c 80,18 879,18 923,0 32,-97 -40,-75 -177,-75 h -693 c -62,0 -71,18 -53,75 z"
   id="path661" />
  <path
   class="fil0"
   d="m 13531,8348 c -35,18 -35,63 -4,80 17,5 93,0 115,0 111,0 684,9 706,-4 36,-18 22,-58 0,-71 -31,-18 -813,-5 -817,-5 z"
   id="path663" />
  <path
   class="fil0"
   d="m 15987,12301 v 413 c 0,75 27,58 204,58 49,0 62,-5 49,-54 -40,-22 -133,-9 -187,-9 v -173 c 54,0 134,5 174,-9 13,-71 -36,-53 -174,-53 l 5,-173 c 44,0 102,4 142,0 62,-5 71,-62 -9,-62 -164,0 -204,-23 -204,62 z"
   id="path665" />
  <path
   class="fil0"
   d="m 15716,12772 h 44 c 27,-45 120,-316 151,-405 18,-53 49,-97 14,-133 -49,-22 -80,120 -107,191 -22,71 -49,173 -84,231 l -129,-377 c -27,-71 -80,-58 -71,0 4,35 169,475 182,493 z"
   id="path667" />
  <path
   class="fil0"
   d="m 14193,12301 c 18,111 -18,404 18,471 l 44,4 c 27,-58 13,-382 13,-475 22,0 93,4 111,-5 36,-17 22,-57 -31,-57 h -231 c -49,0 -71,31 -35,57 17,14 84,5 111,5 z"
   id="path669" />
  <path
   class="fil0"
   d="m 15174,12301 5,382 c 0,40 -9,89 31,93 49,0 35,-58 35,-98 l 5,-373 c 26,-4 89,0 111,-9 31,-13 26,-57 -31,-57 h -231 c -49,0 -71,31 -36,57 18,14 85,5 111,5 z"
   id="path671" />
  <path
   class="fil0"
   d="m 14295,11302 124,4 v 435 c 0,49 67,71 67,-18 v -417 l 124,-4 c 22,-85 -49,-58 -271,-58 -53,0 -57,13 -44,58 z"
   id="path673" />
  <path
   class="fil0"
   d="m 13411,8548 c -53,18 -58,80 27,80 l 559,-4 c 40,-18 36,-80 -40,-80 z"
   id="path675" />
  <path
   class="fil0"
   d="m 14357,10200 c 49,-106 -102,-75 -186,-75 -54,0 -262,-14 -289,9 -36,22 -22,71 31,71 z"
   id="path677" />
  <path
   class="fil0"
   d="m 14939,12292 v 431 c 0,71 66,80 66,0 0,-80 9,-431 -8,-484 -49,-18 -58,0 -58,53 z"
   id="path679" />
  <path
   class="fil0"
   d="m 15423,12283 v 440 c 0,71 66,80 66,-9 0,-76 9,-422 -8,-475 -40,-9 -58,-9 -58,44 z"
   id="path681" />
  <path
   class="fil0"
   d="m 13456,12292 v 431 c 0,75 71,71 71,0 v -440 l -9,-44 c -49,-9 -62,-5 -62,53 z"
   id="path683" />
  <path
   class="fil1"
   d="m 14015,11604 h 196 c -5,-40 -80,-254 -103,-280 z"
   id="path685" />
  <path
   class="fil1"
   d="m 14695,11604 h 195 l -98,-280 c -17,26 -93,240 -97,280 z"
   id="path687" />
  <path
   class="fil0"
   d="m 13984,8233 c 62,0 142,9 182,-13 18,-89 -35,-71 -182,-71 -89,0 -84,84 0,84 z"
   id="path689" />
  <path
   class="fil0"
   d="m 13660,8024 c 26,-84 -31,-71 -151,-71 -89,0 -80,76 -22,84 48,5 137,5 173,-13 z"
   id="path691" />
 </g>
</svg>
