<svg width="98" height="88" viewBox="0 0 98 88" fill="none" xmlns="http://www.w3.org/2000/svg">
<g id="Vector">
<path d="M21.8222 31.8183C21.0819 31.8183 20.4822 32.4192 20.4822 33.1596V65.6301H9.12148C8.3812 65.6301 7.78265 66.2298 7.78265 66.9702C7.78265 67.7119 8.3812 68.3127 9.12148 68.3127H56.7981C68.4785 68.3127 78.3458 58.3639 78.3458 46.5891C78.3458 45.8486 77.7461 45.2478 77.007 45.2478C76.2679 45.2478 75.6693 45.8486 75.6693 46.5891C75.6693 56.9099 67.0273 65.6301 56.7981 65.6301H42.8101V33.1596C42.8101 32.4192 42.2103 31.8183 41.4712 31.8183C40.7321 31.8183 40.1324 32.4192 40.1324 33.1596V65.6301H36.2588V28.427C36.2588 27.6865 35.6591 27.0857 34.9212 27.0857C34.1809 27.0857 33.5812 27.6865 33.5812 28.427V65.6301H29.7099V41.9315C29.7099 41.191 29.1114 40.5914 28.3723 40.5914C27.632 40.5914 27.0323 41.191 27.0323 41.9315V65.6301H23.161V33.1596C23.161 32.4192 22.5613 31.8183 21.8222 31.8183Z" fill="#7C4BAC"/>
<path d="M56.7985 0H15.1098C14.3695 0 13.771 0.600824 13.771 1.3413C13.771 2.08177 14.3695 2.6826 15.1098 2.6826H56.7985C77.681 2.6826 95.3235 20.4176 95.3235 41.4113V46.5887C95.3235 67.5825 77.681 85.3174 56.7985 85.3174H36.2733C35.5331 85.3174 34.9333 85.9182 34.9333 86.6599C34.9333 87.4004 35.5331 88 36.2733 88H56.7985C79.1311 88 98 69.0364 98 46.5887V41.4113C98 18.9636 79.1311 0 56.7985 0Z" fill="#7C4BAC"/>
<path d="M90.1116 47.9309C90.8507 47.9309 91.4504 47.3301 91.4504 46.5885V41.411C91.4504 22.5225 75.5824 6.56307 56.799 6.56307H33.2131C32.4729 6.56307 31.8731 7.1639 31.8731 7.90554C31.8731 8.64484 32.4729 9.24567 33.2131 9.24567H56.799C74.13 9.24567 88.7727 23.9765 88.7727 41.411V46.5885C88.7727 47.3301 89.3725 47.9309 90.1116 47.9309Z" fill="#7C4BAC"/>
<path d="M84.8967 46.5889V41.4115C84.8967 26.0787 72.0297 13.1257 56.7989 13.1257H39.7607C39.0205 13.1257 38.4207 13.7265 38.4207 14.4682C38.4207 15.2086 39.0205 15.8095 39.7607 15.8095H56.7989C70.5772 15.8095 82.2202 27.5338 82.2202 41.4115V46.5889C82.2202 60.4678 70.5772 72.1921 56.7989 72.1921H39.7584C39.0181 72.1921 38.4184 72.793 38.4184 73.5334C38.4184 74.2751 39.0181 74.8747 39.7584 74.8747H56.7989C72.0297 74.8747 84.8967 61.9206 84.8967 46.5889Z" fill="#7C4BAC"/>
<path d="M28.1857 22.3708H56.7989C57.538 22.3708 58.1365 21.77 58.1365 21.0295C58.1365 20.289 57.538 19.6882 56.7989 19.6882H28.1857C27.4454 19.6882 26.8457 20.289 26.8457 21.0295C26.8457 21.77 27.4454 22.3708 28.1857 22.3708Z" fill="#7C4BAC"/>
<path d="M3.6529 2.68282H8.35813C9.09607 2.68282 9.69579 2.08199 9.69579 1.34034C9.69579 0.601045 9.09607 0.000218102 8.35813 0.000218102H3.6529C2.91262 0.000218102 2.31291 0.601045 2.31291 1.34034C2.31291 2.08199 2.91262 2.68282 3.6529 2.68282Z" fill="#7C4BAC"/>
<path d="M25.1235 9.24591C25.8626 9.24591 26.4623 8.64508 26.4623 7.90461C26.4623 7.16414 25.8626 6.56331 25.1235 6.56331H19.4929C18.7538 6.56331 18.1541 7.16414 18.1541 7.90461C18.1541 8.64508 18.7538 9.24591 19.4929 9.24591H25.1235Z" fill="#7C4BAC"/>
<path d="M4.34844 14.4682C4.34844 15.2087 4.94816 15.8095 5.68844 15.8095H31.6755C32.4146 15.8095 33.0144 15.2087 33.0144 14.4682C33.0144 13.7265 32.4146 13.1257 31.6755 13.1257H5.68844C4.94816 13.1257 4.34844 13.7265 4.34844 14.4682Z" fill="#7C4BAC"/>
<path d="M1.34 22.3708H20.0977C20.8368 22.3708 21.4353 21.77 21.4353 21.0295C21.4353 20.289 20.8368 19.6882 20.0977 19.6882H1.34C0.59972 19.6882 0 20.289 0 21.0295C0 21.77 0.59972 22.3708 1.34 22.3708Z" fill="#7C4BAC"/>
<path d="M17.5945 72.1926C16.8542 72.1926 16.2545 72.7934 16.2545 73.5339C16.2545 74.2744 16.8542 74.8752 17.5945 74.8752H31.6739C32.4118 74.8752 33.0115 74.2744 33.0115 73.5339C33.0115 72.7934 32.4118 72.1926 31.6739 72.1926H17.5945Z" fill="#7C4BAC"/>
<path d="M4.34844 80.0964C4.34844 80.8369 4.94816 81.4377 5.68844 81.4377H41.6634C42.4025 81.4377 43.0023 80.8369 43.0023 80.0964C43.0023 79.3548 42.4025 78.754 41.6634 78.754H5.68844C4.94816 78.754 4.34844 79.3548 4.34844 80.0964Z" fill="#7C4BAC"/>
<path d="M53.2468 81.4373H56.8264C62.5343 81.4373 68.2386 79.934 73.3234 77.0907C78.6775 74.09 83.2035 69.7211 86.4118 64.451C86.7984 63.8197 86.5981 62.9935 85.9679 62.6086C85.3354 62.2237 84.5107 62.422 84.1265 63.0545C81.1572 67.9304 76.9697 71.9742 72.0162 74.7484C67.3309 77.3699 62.0786 78.7547 56.8264 78.7547H53.2468C52.5077 78.7547 51.908 79.3555 51.908 80.096C51.908 80.8364 52.5077 81.4373 53.2468 81.4373Z" fill="#7C4BAC"/>
</g>
</svg>
